<?xml version="1.0" standalone="no"?>
<!DOCTYPE svg PUBLIC "-//W3C//DTD SVG 20010904//EN"
 "http://www.w3.org/TR/2001/REC-SVG-20010904/DTD/svg10.dtd">
<svg version="1.0" xmlns="http://www.w3.org/2000/svg"
 width="333.000000pt" height="346.000000pt" viewBox="0 0 333.000000 346.000000"
 preserveAspectRatio="xMidYMid meet">

<g transform="translate(0.000000,346.000000) scale(0.100000,-0.100000)"
fill="#000000" stroke="none">
<path d="M1455 3434 c-178 -19 -406 -84 -562 -160 -148 -73 -283 -180 -283
-226 0 -7 19 -39 41 -71 l41 -59 -33 -34 -33 -34 -12 36 c-16 45 -40 63 -86
64 -51 0 -84 -17 -99 -53 -10 -24 -10 -34 2 -56 19 -34 62 -40 82 -11 16 23
31 12 21 -14 -4 -10 5 -26 25 -45 17 -16 31 -36 31 -44 0 -8 18 -31 40 -51 30
-27 49 -36 76 -36 67 0 111 45 78 81 -21 23 -32 24 -56 2 -24 -22 -49 -3 -28
22 15 18 150 22 150 5 0 -46 -61 -129 -114 -157 l-30 -15 27 -20 c15 -11 39
-40 54 -65 22 -38 27 -60 31 -146 4 -88 3 -100 -11 -94 -9 3 -32 -7 -58 -28
-24 -19 -46 -32 -50 -30 -3 3 -9 18 -12 35 -4 17 -32 57 -67 95 -66 71 -75 95
-34 95 19 0 28 -8 40 -36 14 -33 17 -35 47 -29 34 7 67 38 67 63 0 8 -25 38
-55 66 -30 28 -55 59 -55 68 0 9 -13 25 -30 35 -16 9 -30 21 -30 25 0 4 -17
15 -37 25 -21 9 -41 19 -46 21 -4 2 -7 -6 -7 -18 0 -17 -4 -21 -18 -15 -32 12
-37 10 -40 -18 -3 -28 -4 -28 -29 -11 l-26 16 6 -40 c3 -29 1 -45 -9 -53 -8
-7 -14 -30 -14 -58 l0 -46 -27 35 c-62 77 -124 177 -139 222 -19 60 -34 53
-34 -15 0 -40 -3 -48 -12 -39 -7 7 -16 12 -21 12 -10 0 -4 -83 8 -115 8 -20 8
-20 -13 -1 -12 11 -25 17 -28 13 -10 -10 7 -65 29 -93 22 -29 23 -29 -28 -8
-26 10 -17 -23 15 -59 35 -40 38 -52 9 -37 -37 20 -42 5 -10 -32 36 -41 38
-48 14 -48 -13 -1 -7 -10 21 -35 22 -19 34 -35 28 -35 -21 0 -13 -15 18 -33
17 -10 30 -25 30 -33 0 -8 11 -20 25 -26 14 -6 25 -15 25 -20 0 -5 14 -15 30
-22 l31 -13 -53 -33 c-44 -28 -63 -34 -112 -34 -55 -1 -60 -3 -92 -40 -41 -48
-45 -94 -12 -161 17 -34 19 -48 10 -57 -8 -8 -15 -8 -27 2 -11 9 -19 10 -26 3
-15 -15 -2 -51 22 -63 15 -9 17 -15 9 -29 -12 -23 4 -76 33 -108 22 -25 66
-30 85 -11 19 19 14 49 -8 55 -26 7 -25 24 5 69 32 47 32 82 -2 156 -28 63
-25 109 8 116 12 2 14 -5 11 -33 -6 -48 2 -72 38 -127 34 -51 34 -80 -1 -98
-26 -15 -26 -71 1 -95 11 -10 25 -37 32 -59 6 -23 18 -49 27 -59 8 -10 15 -30
16 -45 0 -30 35 -54 75 -50 33 4 38 33 11 69 -12 15 -21 37 -21 47 0 10 -10
27 -21 38 -12 10 -28 34 -36 52 -17 41 -6 64 51 102 20 14 42 41 50 60 12 29
15 32 21 17 5 -10 0 -34 -10 -56 -25 -57 -18 -70 52 -96 62 -22 110 -53 158
-101 22 -22 73 -33 88 -18 9 9 -14 55 -40 83 -13 13 -23 27 -23 32 0 5 -22 15
-49 23 -61 18 -91 33 -91 47 0 5 9 22 20 37 36 50 36 82 -3 138 l-35 51 52 22
c29 12 72 41 96 66 24 25 48 45 52 45 21 0 4 -47 -32 -86 -43 -47 -56 -104
-24 -104 27 0 114 70 114 91 0 20 49 124 55 117 2 -2 -13 -61 -34 -132 -32
-111 -41 -130 -64 -143 -15 -7 -27 -22 -27 -32 0 -27 54 -70 105 -83 l43 -12
7 -65 c23 -214 138 -374 351 -490 258 -141 300 -164 308 -172 5 -4 -2 -13 -17
-20 -23 -10 -30 -9 -45 4 -10 10 -26 17 -35 17 -25 0 -21 -45 6 -70 28 -27
114 -25 135 3 19 24 29 22 89 -24 l53 -40 28 19 c15 10 46 28 70 40 35 18 44
20 48 8 3 -8 13 -15 22 -15 9 0 32 -3 50 -7 45 -9 82 17 82 56 0 34 -22 40
-51 15 -16 -15 -69 -12 -69 4 0 10 76 55 190 111 273 136 402 264 457 451 12
42 16 126 20 387 6 360 6 362 58 300 l27 -32 -25 -13 c-40 -20 -42 -46 -8
-110 17 -32 31 -68 31 -81 0 -12 8 -25 18 -29 9 -4 30 -17 45 -30 16 -13 38
-23 49 -23 18 0 20 5 15 40 -3 28 -14 47 -31 61 -41 32 -56 49 -56 64 0 30 22
23 73 -23 30 -27 75 -57 100 -67 l47 -18 -30 -40 c-39 -53 -41 -106 -4 -154
14 -19 24 -36 23 -37 -13 -11 -71 -36 -107 -45 -29 -8 -46 -20 -54 -37 -6 -13
-14 -24 -18 -24 -9 0 -30 -46 -30 -65 0 -10 11 -15 34 -15 28 0 45 10 88 50
47 44 79 61 176 95 17 6 15 51 -4 80 -11 17 -14 33 -9 52 l8 28 8 -31 c8 -29
26 -49 98 -106 33 -27 26 -60 -25 -121 -13 -16 -24 -35 -24 -43 0 -8 -9 -28
-21 -43 -23 -32 -22 -64 3 -69 9 -2 32 4 52 12 30 12 36 20 36 44 0 16 7 35
15 42 8 7 15 21 15 32 0 24 23 70 44 87 26 21 20 76 -9 95 -14 9 -25 21 -25
27 0 6 16 37 36 69 32 52 36 65 32 113 -3 50 -1 54 14 46 30 -16 33 -57 8
-113 -35 -78 -36 -114 -6 -159 31 -46 33 -63 6 -70 -11 -3 -20 -14 -20 -24 0
-51 65 -59 104 -12 32 38 41 71 27 98 -9 17 -8 22 9 31 24 13 29 70 6 70 -8 0
-16 -6 -19 -12 -4 -10 -7 -10 -18 0 -11 10 -8 21 14 66 31 61 32 74 13 121
-22 51 -69 77 -131 72 -36 -3 -56 0 -75 13 -14 9 -38 25 -54 35 l-29 17 31 14
c18 7 32 18 32 24 0 5 6 10 13 10 17 0 49 34 41 43 -3 3 8 13 26 22 24 12 30
21 25 36 -4 11 -2 19 4 19 14 0 51 37 51 50 0 5 -8 6 -17 3 -12 -4 -6 7 15 30
39 45 41 61 7 53 l-25 -6 30 47 c31 49 28 63 -10 43 l-21 -11 21 38 c19 37 27
83 13 83 -3 0 -15 -8 -25 -17 -18 -16 -19 -16 -9 11 13 32 15 106 3 106 -4 0
-12 -4 -18 -9 -5 -6 -9 7 -10 35 -2 67 -18 75 -37 19 -18 -50 -117 -213 -148
-241 -18 -17 -19 -16 -19 28 0 27 -6 50 -14 57 -10 8 -13 23 -9 47 6 37 2 40
-28 24 -17 -10 -19 -7 -19 20 0 29 -13 40 -25 20 -10 -15 -35 -12 -29 4 9 23
-11 26 -47 8 -36 -19 -99 -75 -99 -88 0 -4 -27 -35 -60 -70 -33 -34 -60 -67
-60 -72 0 -18 35 -50 62 -56 28 -6 58 14 58 39 0 11 28 24 53 25 21 0 1 -37
-53 -95 -39 -43 -62 -78 -66 -101 -3 -19 -9 -34 -13 -34 -4 0 -21 13 -37 30
-19 19 -39 30 -58 30 l-29 0 5 88 c6 100 28 161 77 206 36 35 38 42 12 51 -32
10 -91 77 -103 118 -6 20 -9 39 -6 42 3 3 30 6 61 8 43 1 61 -2 74 -15 13 -14
14 -21 5 -30 -9 -9 -16 -7 -32 7 -38 34 -78 -16 -47 -59 8 -11 30 -20 58 -23
57 -5 96 19 128 80 13 25 32 48 43 50 15 4 19 13 16 38 -4 38 15 50 32 20 12
-23 49 -28 68 -9 7 7 12 29 12 49 0 103 -173 108 -195 7 l-7 -32 -20 27 c-11
15 -26 27 -34 27 -8 0 -14 3 -14 8 0 10 27 49 62 90 34 40 31 61 -16 110 -38
41 -169 129 -251 169 -122 60 -273 109 -436 139 -82 15 -461 27 -554 18z m523
-29 c118 -18 286 -65 393 -110 147 -62 349 -204 349 -245 0 -11 -5 -20 -11
-20 -5 0 -7 5 -4 10 9 15 -10 35 -90 94 -79 59 -95 69 -95 62 0 -2 29 -25 65
-50 68 -49 92 -74 59 -63 -11 4 -4 -5 15 -21 20 -17 31 -34 27 -40 -5 -8 -14
-5 -29 11 -12 12 -19 18 -14 13 10 -14 9 -28 -2 -21 -5 3 -12 1 -16 -4 -3 -6
3 -8 15 -6 17 3 18 1 10 -14 -5 -10 -6 -21 -2 -25 3 -4 2 -10 -4 -14 -5 -4
-20 -22 -33 -40 -20 -29 -25 -31 -40 -19 -37 32 -44 29 -13 -8 50 -61 38 -67
-21 -11 -29 28 -73 61 -97 74 -25 12 -37 17 -26 10 10 -7 41 -29 69 -48 51
-35 97 -90 97 -117 0 -7 -12 -18 -27 -24 -24 -10 -36 -7 -85 20 -61 34 -96 39
-104 17 -6 -16 24 -81 33 -72 3 3 0 13 -7 22 -12 13 -11 17 0 24 8 5 19 5 26
0 6 -6 15 -6 19 -2 5 4 5 -1 2 -10 -6 -17 30 -74 41 -64 3 3 -3 15 -13 26 -10
11 -14 20 -9 20 16 0 34 -38 27 -56 -5 -13 -3 -15 7 -9 8 5 11 3 8 -6 -3 -8 4
-25 16 -39 11 -14 4 -9 -17 10 -21 19 -45 47 -53 63 -8 15 -19 27 -25 27 -6 0
-7 -5 -3 -12 5 -7 3 -8 -6 -3 -10 6 -12 3 -7 -11 5 -13 0 -11 -18 9 -27 31
-40 69 -31 92 8 23 66 18 111 -10 49 -30 95 -33 95 -6 0 75 -260 215 -513 276
-387 94 -853 29 -1152 -160 -106 -67 -148 -135 -84 -135 20 0 28 4 23 12 -4 7
-3 8 5 4 6 -4 26 2 45 13 39 25 94 28 102 6 9 -23 -4 -61 -29 -87 -12 -13 -19
-19 -14 -14 15 21 6 26 -17 10 -14 -8 -27 -15 -30 -15 -4 1 -7 -2 -8 -6 0 -5
-8 -14 -17 -21 -9 -8 -10 -11 -3 -7 21 11 13 -2 -13 -19 l-25 -16 12 27 c7 16
16 30 20 33 4 3 17 21 30 39 13 19 33 36 46 38 30 4 28 -13 -3 -21 -14 -4 -23
-11 -20 -17 5 -7 11 -7 19 0 7 6 16 8 19 5 6 -7 27 38 27 56 0 23 -51 21 -97
-3 -26 -14 -55 -27 -63 -30 -30 -9 -56 11 -69 52 -11 38 -10 45 9 76 12 19 27
35 32 35 6 0 8 3 5 7 -4 3 -18 -4 -32 -17 -31 -29 -33 -15 -2 19 l22 26 -27
-24 c-16 -14 -28 -19 -28 -12 0 7 -4 9 -10 6 -16 -10 -11 1 7 16 15 12 16 12
8 -1 -8 -13 -7 -13 8 -1 19 15 23 26 5 15 -8 -5 -9 0 -5 15 4 18 3 20 -9 10
-11 -9 -14 -9 -14 1 0 10 -3 10 -15 0 -17 -14 -21 -35 -5 -25 6 3 10 2 10 -4
0 -23 -19 -19 -27 7 -11 30 -7 52 9 52 6 0 6 -6 -2 -15 -18 -22 -2 -18 28 6
24 19 24 21 5 15 -12 -4 -24 -2 -28 4 -5 8 -10 8 -20 0 -25 -21 -28 10 -4 37
35 37 143 112 223 155 39 21 67 38 61 38 -37 0 -291 -168 -315 -209 -5 -9 -10
-11 -10 -6 -1 36 147 146 281 210 176 83 369 135 575 154 123 12 362 5 492
-14z m42 -328 c114 -27 240 -71 319 -112 48 -24 50 -26 39 -50 -6 -14 -14 -25
-18 -25 -11 0 -30 -49 -30 -76 0 -14 5 -34 10 -45 13 -23 3 -25 -22 -2 -21 19
-25 82 -6 101 10 10 10 15 -2 23 -8 5 -23 7 -32 5 -9 -2 -25 5 -35 16 -61 68
-154 57 -177 -19 -6 -19 -11 -21 -26 -13 -11 6 -25 20 -31 32 -9 17 -8 23 5
30 21 12 21 54 0 62 -31 12 -54 6 -70 -19 -21 -33 -11 -77 29 -122 42 -48 99
-73 167 -73 43 0 64 -6 95 -27 21 -15 34 -28 27 -31 -6 -2 -60 10 -120 27 -59
16 -146 37 -192 47 l-85 18 -1 59 c-2 73 -24 106 -89 129 -52 19 -153 22 -194
7 -27 -11 -80 -66 -81 -85 0 -6 -7 -17 -15 -24 -8 -7 -15 -29 -15 -50 0 -37
-1 -38 -45 -45 -25 -3 -99 -21 -163 -39 -64 -19 -133 -36 -152 -40 l-35 -7 33
30 c28 27 40 31 90 31 33 0 74 8 97 19 49 22 101 79 110 121 9 39 -16 80 -48
80 -46 0 -64 -49 -25 -67 23 -10 22 -10 -12 -44 -33 -32 -35 -33 -38 -12 -4
27 -56 73 -83 73 -32 0 -85 -26 -102 -50 -8 -12 -20 -19 -26 -15 -6 3 -20 3
-31 0 -19 -6 -19 -8 -5 -35 21 -40 19 -54 -11 -89 -14 -17 -21 -31 -16 -31 37
0 68 100 40 128 -9 9 -8 12 4 12 9 0 19 -10 23 -22 6 -22 7 -21 16 9 13 43 53
73 99 73 48 0 75 -28 75 -80 l0 -38 47 48 c33 33 48 57 49 77 l1 28 8 -30 c7
-29 8 -29 9 -4 1 33 -7 41 -30 28 -15 -7 -19 -6 -19 6 0 21 27 30 45 15 28
-23 14 -105 -17 -105 -7 0 -13 -7 -13 -15 0 -19 -59 -58 -102 -66 -27 -5 -39
-2 -55 14 -19 19 -17 49 3 36 5 -3 6 -10 3 -16 -4 -6 1 -8 12 -6 15 3 19 12
19 40 0 21 4 33 9 28 5 -5 9 -21 9 -35 0 -17 2 -23 7 -14 14 21 -19 79 -44 79
-6 0 -4 -5 4 -10 11 -7 7 -9 -15 -5 -39 7 -56 -8 -90 -75 -15 -30 -35 -64 -44
-75 -9 -11 3 -3 27 18 23 20 48 37 55 38 6 1 2 4 -10 7 l-22 7 20 33 c16 24
28 32 50 32 16 0 29 -2 29 -4 0 -2 3 -13 7 -23 6 -15 4 -16 -9 -5 -24 19 -48
4 -48 -29 0 -22 -6 -32 -24 -39 -13 -5 -27 -13 -30 -19 -4 -6 -21 -20 -38 -33
-17 -12 -28 -17 -24 -10 9 16 -6 16 -22 0 -20 -20 -35 4 -22 36 16 43 12 69
-20 119 l-29 47 41 21 c111 57 303 117 443 138 33 6 155 8 270 6 182 -3 224
-6 315 -28z m670 -12 c20 -24 6 -28 -15 -5 -10 11 -13 20 -8 20 6 0 16 -7 23
-15z m-927 -67 c9 -5 17 -13 17 -19 0 -6 4 -8 8 -5 4 2 9 -7 10 -20 1 -19 -2
-25 -15 -22 -9 2 -18 9 -21 17 -3 8 0 11 7 7 6 -4 11 -3 11 3 0 5 -4 13 -10
16 -5 3 -10 1 -10 -6 0 -7 -10 -3 -23 9 -13 12 -31 22 -41 22 -9 0 -14 5 -11
10 6 10 46 4 78 -12z m-140 -5 c-24 -8 -43 -19 -43 -24 0 -4 -14 -16 -30 -24
-29 -15 -33 -35 -7 -35 7 0 6 4 -3 10 -13 8 -13 10 1 10 9 0 22 7 29 15 7 8
17 12 22 9 5 -3 -1 -17 -14 -31 -25 -27 -78 -58 -78 -46 0 5 -5 1 -10 -7 -7
-11 -10 -11 -10 -2 0 15 39 73 58 85 6 4 12 14 12 22 0 21 30 34 75 34 l40 -1
-42 -15z m381 1 c9 -3 16 -12 16 -20 0 -10 -6 -11 -24 -4 -20 7 -26 6 -31 -9
-5 -18 9 -71 20 -71 2 0 0 12 -5 26 -17 44 -10 51 9 9 10 -23 31 -49 47 -60
16 -10 35 -26 42 -34 10 -13 10 -11 2 12 -12 33 1 71 29 86 54 29 123 -4 147
-70 12 -33 12 -33 13 -6 1 17 6 27 16 27 12 0 13 -4 5 -19 -20 -38 -12 -72 28
-109 l37 -36 -37 23 c-21 12 -38 19 -38 16 0 -4 -15 4 -32 17 -18 14 -39 27
-47 29 -8 3 -15 18 -17 34 -3 33 -21 47 -48 39 -13 -4 -17 -2 -14 7 3 8 15 15
27 17 26 4 73 -35 69 -56 -3 -14 52 -85 60 -78 2 2 -8 21 -23 41 -14 21 -25
42 -25 48 0 22 -44 57 -74 58 l-31 2 35 7 35 8 -40 -1 c-26 -1 -39 -6 -37 -14
1 -7 -4 -12 -10 -10 -16 3 -23 -52 -9 -66 19 -19 41 -16 41 4 0 10 7 19 15 19
27 0 17 -40 -12 -51 -68 -26 -193 63 -193 136 0 22 6 38 18 44 21 13 17 12 36
5z m-274 -29 c29 -31 19 -32 -20 -3 -23 17 -33 19 -42 10 -9 -9 -7 -12 9 -12
11 0 32 -11 47 -25 17 -16 39 -25 59 -25 l32 0 -30 -16 c-27 -14 -33 -14 -73
1 -72 28 -97 95 -34 95 17 0 38 -10 52 -25z m-58 -65 l31 -18 -75 -4 -75 -3
36 38 c29 31 37 34 44 21 5 -8 22 -24 39 -34z m-1155 30 c-53 -10 -53 -15 3
-15 29 0 46 4 42 10 -3 6 4 2 16 -9 15 -13 23 -36 29 -80 4 -33 9 -52 11 -41
4 23 50 75 66 75 5 0 1 -7 -10 -15 -13 -10 -15 -14 -5 -15 10 0 7 -8 -10 -27
l-24 -28 26 23 c29 25 64 29 72 8 4 -10 1 -13 -8 -10 -18 7 -77 -24 -69 -37 3
-6 11 -3 20 8 7 10 14 13 14 6 0 -6 -4 -15 -10 -18 -5 -3 -10 -17 -10 -30 0
-26 32 -50 56 -41 8 3 14 1 14 -5 0 -6 5 -7 10 -4 8 5 7 11 -1 21 -9 11 -8 14
4 14 37 0 30 -41 -9 -59 -39 -17 -61 -13 -98 19 -40 35 -59 85 -58 147 0 35
-5 47 -25 63 -31 24 -51 25 -81 4 -22 -15 -31 -64 -12 -64 6 0 10 10 10 23 1
20 1 21 11 4 8 -14 8 -22 0 -30 -18 -18 -46 5 -49 40 -4 39 36 74 82 72 30 -1
30 -2 -7 -9z m2133 6 c0 -2 -8 -10 -17 -17 -16 -13 -17 -12 -4 4 13 16 21 21
21 13z m242 -26 c15 -19 16 -59 2 -82 -7 -11 -32 -10 -39 2 -3 5 0 7 8 4 19
-7 30 11 22 35 -7 24 -57 45 -84 36 -29 -9 -51 -55 -51 -107 0 -46 -33 -113
-50 -103 -6 4 -9 1 -8 -6 3 -14 -38 -39 -64 -39 -24 0 -73 44 -64 58 10 17 33
15 40 -3 3 -8 12 -15 19 -15 21 0 50 37 42 52 -6 10 -5 11 5 1 12 -11 10 -18
-8 -43 -13 -17 -17 -27 -8 -24 24 9 37 51 24 79 -6 14 -15 25 -20 25 -5 0 -6
-4 -3 -10 4 -6 -1 -7 -11 -3 -11 4 -13 8 -6 11 19 6 14 22 -7 22 -11 0 -18 6
-17 15 3 24 13 27 38 14 20 -11 22 -10 10 3 -10 13 -10 17 2 21 9 4 25 -6 41
-24 28 -34 33 -29 37 36 2 27 7 39 16 37 8 -1 11 2 8 7 -11 17 27 32 69 27 24
-3 46 -13 57 -26z m-2162 4 c0 -8 -5 -12 -10 -9 -6 4 -8 11 -5 16 9 14 15 11
15 -7z m241 -36 c20 -27 20 -31 5 -25 -17 7 -95 -10 -106 -23 -3 -3 -12 -6
-20 -8 -8 -2 2 13 24 32 21 20 46 36 55 37 12 0 11 2 -4 9 -19 8 -19 9 2 9 13
1 30 -11 44 -31z m1470 11 c10 -20 9 -21 -11 -16 -16 4 -20 3 -12 -5 5 -5 21
-11 35 -11 14 -1 23 -5 21 -8 -6 -10 21 -29 53 -39 21 -6 23 -9 8 -9 -11 -1
-38 11 -58 25 -26 17 -53 26 -82 26 l-43 1 21 29 c25 33 52 36 68 7z m-587 -5
c3 -8 2 -12 -4 -9 -6 3 -10 10 -10 16 0 14 7 11 14 -7z m-1274 -46 c0 -12 -5
-10 -29 11 -13 11 -29 17 -37 14 -8 -3 -14 0 -14 5 0 20 45 18 62 -3 10 -11
18 -23 18 -27z m127 46 c-3 -3 -12 -4 -19 -1 -8 3 -5 6 6 6 11 1 17 -2 13 -5z
m1113 -9 c11 -13 10 -14 -4 -9 -9 3 -16 10 -16 15 0 13 6 11 20 -6z m292 -14
c2 -17 1 -28 -4 -25 -8 5 -12 54 -4 54 2 0 6 -13 8 -29z m563 19 c4 -6 -1 -7
-11 -3 -13 5 -15 3 -9 -8 8 -12 6 -12 -8 0 -9 7 -17 15 -17 17 0 9 39 3 45 -6z
m185 -16 c0 -13 -3 -14 -14 -5 -17 14 -43 4 -67 -25 -11 -13 -11 -18 -1 -21
14 -5 16 -23 3 -23 -23 0 -22 42 0 66 26 28 79 34 79 8z m-1107 -13 c8 -8 7
-11 -3 -11 -13 0 -13 -2 0 -10 12 -8 8 -10 -15 -11 l-30 -1 33 -8 c48 -11 54
-23 7 -13 -22 4 -79 7 -127 6 -72 -2 -88 0 -88 12 0 8 12 17 28 21 47 10 49
14 2 9 -50 -7 -49 3 2 16 45 11 176 5 191 -10z m-1046 -7 c-3 -3 -12 -4 -19
-1 -8 3 -5 6 6 6 11 1 17 -2 13 -5z m789 -42 c-12 -11 -18 7 -10 30 l8 23 4
-23 c2 -13 1 -26 -2 -30z m322 20 c3 -16 -1 -20 -12 -16 -19 7 -22 48 -3 42 6
-3 13 -14 15 -26z m-1243 -22 c3 -5 2 -10 -4 -10 -5 0 -13 5 -16 10 -3 6 -2
10 4 10 5 0 13 -4 16 -10z m1430 -23 c33 -8 122 -31 198 -51 76 -20 159 -36
184 -36 39 0 51 -6 91 -41 26 -23 63 -49 82 -57 19 -9 36 -17 38 -18 1 -1 -11
-16 -28 -34 -58 -62 -63 -104 -61 -509 1 -392 -9 -553 -41 -639 -30 -80 -96
-170 -170 -232 -69 -59 -256 -170 -289 -173 -10 -1 -19 -4 -19 -8 0 -11 -29
-19 -35 -9 -3 5 32 28 77 51 118 59 212 122 281 187 74 71 100 111 134 209
l27 78 6 470 c6 438 8 473 26 518 11 26 28 56 37 67 17 20 16 21 -10 31 -15 5
-46 26 -69 45 -24 19 -54 34 -68 34 -36 0 -112 17 -251 55 -66 19 -157 41
-202 51 -48 10 -83 22 -83 29 0 13 33 9 145 -18z m-531 14 c3 -4 -34 -16 -82
-26 -48 -10 -97 -22 -109 -26 -56 -21 -222 -60 -291 -70 -65 -9 -82 -16 -115
-45 -21 -19 -50 -39 -64 -45 -24 -9 -25 -10 -9 -28 36 -40 56 -135 56 -267 0
-69 -4 -123 -9 -120 -4 3 -10 65 -13 138 -6 144 -23 201 -73 248 l-25 23 43
19 c23 11 60 36 82 57 36 35 47 39 105 44 36 3 111 18 165 33 240 64 272 72
302 73 17 1 34 -3 37 -8z m114 -27 c-2 -20 3 -29 20 -35 16 -6 22 -5 22 6 0 8
-6 14 -12 13 -7 -2 -14 8 -15 22 -2 22 -2 23 6 5 8 -17 10 -17 10 -3 1 14 9
17 51 14 66 -4 89 -24 71 -62 -11 -24 -10 -26 3 -14 35 28 13 -10 -25 -44 -35
-32 -46 -37 -82 -34 -38 3 -45 8 -74 53 -47 72 -43 99 15 104 9 1 12 -8 10
-25z m-92 -6 c4 -6 3 -8 -4 -4 -6 3 -13 2 -17 -4 -4 -6 -11 -7 -18 -3 -9 6 -3
10 30 22 1 1 5 -4 9 -11z m336 -22 c4 3 9 0 14 -7 4 -7 3 -10 -3 -6 -9 6 -23
-56 -27 -120 0 -13 -4 -23 -8 -23 -14 0 -19 42 -8 75 9 28 9 39 -4 57 -23 32
-19 48 4 19 22 -26 26 -21 9 12 -9 20 -9 20 4 5 8 -10 16 -15 19 -12z m45 9
c0 -8 -4 -12 -9 -9 -4 3 -8 9 -8 15 0 5 4 9 8 9 5 0 9 -7 9 -15z m-496 -37
c-12 -11 -13 -10 -7 6 5 15 2 18 -19 14 -28 -6 -35 8 -7 15 9 2 24 -2 32 -10
12 -11 12 -15 1 -25z m34 22 c-3 -4 1 -11 7 -13 8 -4 7 -6 -4 -6 -11 -1 -16 6
-15 18 0 11 5 17 9 15 5 -3 6 -9 3 -14z m545 16 c0 -2 -8 -10 -18 -19 -16 -15
-18 -15 -18 1 0 10 8 19 18 19 10 1 18 0 18 -1z m56 -21 c9 -8 14 -15 12 -16
-27 -6 -37 -6 -32 3 4 6 0 14 -7 19 -11 7 -11 9 -1 9 7 0 20 -7 28 -15z m-706
-5 c0 -5 -5 -10 -11 -10 -5 0 -7 -6 -3 -12 5 -9 2 -8 -10 1 -13 11 -14 16 -4
22 18 12 28 11 28 -1z m195 -50 c-19 -42 -33 -50 -16 -9 5 13 12 33 15 43 4
10 9 16 13 13 3 -4 -2 -25 -12 -47z m564 47 c-2 -1 -12 -9 -22 -16 -15 -12
-17 -12 -11 3 3 9 13 16 22 16 8 0 13 -1 11 -3z m-805 -15 c2 -4 -7 -9 -20
-10 -15 -1 -22 2 -19 8 7 12 32 13 39 2z m606 -26 c0 -28 18 -53 50 -70 17 -8
24 -19 23 -35 -2 -12 1 -20 7 -16 6 3 7 -1 4 -9 -8 -20 -24 -11 -24 13 0 13
-8 19 -25 19 -20 0 -23 -3 -15 -13 8 -10 8 -15 -1 -21 -7 -4 -9 -3 -6 3 4 6
-2 13 -13 16 -11 3 -20 10 -20 17 0 6 5 8 12 4 7 -4 8 -3 4 5 -4 6 -11 9 -16
6 -17 -11 -21 17 -10 65 12 50 30 59 30 16z m242 27 c-6 -2 -10 -9 -7 -14 4
-5 -1 -6 -9 -3 -24 9 -19 24 7 23 12 0 16 -3 9 -6z m-905 -10 c-4 -3 -1 -13 6
-21 10 -13 8 -14 -18 -8 -16 4 -34 12 -40 18 -7 8 -5 9 6 5 9 -3 22 -1 30 4
17 10 25 12 16 2z m188 -13 c-49 -10 -126 -30 -170 -45 -111 -36 -193 -55
-241 -55 -52 0 -92 -36 -75 -68 22 -40 43 -351 23 -339 -4 3 -9 61 -10 128 -1
78 -8 142 -18 181 -17 58 -16 59 5 82 17 18 40 25 109 34 48 6 130 25 183 42
129 40 207 58 249 58 20 0 -3 -8 -55 -18z m605 0 c47 -10 121 -30 165 -44 43
-14 117 -31 164 -37 62 -8 91 -17 108 -33 23 -22 23 -22 6 -67 -15 -39 -18
-102 -23 -514 -5 -391 -9 -478 -22 -520 -9 -27 -19 -60 -23 -71 -5 -15 -2 -23
9 -27 9 -4 16 -1 16 5 0 6 2 9 5 6 8 -8 -30 -72 -68 -113 -20 -22 -37 -43 -37
-47 0 -5 -7 -8 -15 -8 -7 0 -19 -8 -24 -17 -9 -16 -11 -13 -11 12 0 3 2 4 5 3
2 -2 11 6 19 17 9 11 16 16 16 12 0 -4 6 -2 14 5 8 7 12 16 9 21 -2 4 1 7 6 7
6 0 10 5 8 12 -1 7 5 12 13 13 8 0 15 5 15 10 1 6 5 20 9 33 14 40 0 34 -30
-14 -32 -51 -128 -132 -219 -186 -83 -49 -128 -71 -121 -60 3 6 48 33 99 60
104 57 205 143 243 208 15 25 36 73 47 107 20 58 21 91 27 537 5 412 7 480 22
512 16 35 16 37 -6 57 -13 12 -36 21 -54 21 -44 0 -120 17 -247 55 -60 18
-130 36 -155 40 -42 7 -88 24 -65 24 6 1 48 -8 95 -19z m140 10 c0 -5 -5 -10
-11 -10 -5 0 -7 5 -4 10 3 6 8 10 11 10 2 0 4 -4 4 -10z m37 -15 c12 -13 18
-13 31 -3 14 12 14 10 3 -11 -10 -17 -15 -20 -21 -11 -4 7 -14 11 -22 8 -9 -4
-14 1 -14 13 0 23 3 23 23 4z m-1992 -68 c-5 -16 -4 -18 3 -8 8 11 14 7 28
-20 10 -19 17 -38 16 -42 -1 -4 3 -17 9 -29 7 -14 8 -18 0 -14 -6 4 -18 22
-27 41 -9 19 -20 33 -24 30 -11 -7 -17 13 -25 71 -6 49 -6 49 10 21 9 -16 13
-37 10 -50z m1346 12 c-5 -18 -12 -43 -16 -54 -7 -20 -6 -20 9 -1 9 11 16 32
16 47 0 15 4 30 8 33 13 8 11 -67 -1 -84 -14 -17 -60 -23 -51 -6 3 6 -6 -1
-19 -16 -14 -15 -37 -30 -52 -34 l-27 -7 26 26 c14 14 26 33 26 41 0 17 34 31
51 20 8 -5 10 1 6 21 -6 35 13 83 24 62 4 -7 4 -29 0 -48z m1645 6 c-4 -25
-11 -43 -15 -40 -5 2 -14 -10 -21 -28 -19 -45 -42 -71 -51 -55 -4 6 7 33 25
62 18 28 38 66 45 84 18 43 25 34 17 -23z m-2059 31 c-3 -8 -2 -17 4 -20 5 -2
4 -3 -3 -1 -7 1 -12 8 -10 14 1 6 -5 11 -14 11 -10 0 -14 -6 -11 -14 3 -8 -1
-17 -9 -20 -8 -3 -14 1 -14 9 0 8 -6 15 -12 16 -17 1 31 17 56 18 12 1 16 -4
13 -13z m-87 -6 c0 -5 -5 -10 -11 -10 -5 0 -7 5 -4 10 3 6 8 10 11 10 2 0 4
-4 4 -10z m1270 0 c0 -5 -5 -10 -11 -10 -5 0 -7 5 -4 10 3 6 8 10 11 10 2 0 4
-4 4 -10z m-1300 -10 c0 -5 -9 -9 -20 -7 -31 5 -36 17 -7 17 15 0 27 -4 27
-10z m1360 2 c0 -5 -7 -9 -15 -9 -8 0 -12 4 -9 9 3 4 9 8 15 8 5 0 9 -4 9 -8z
m30 -8 c0 -8 -5 -12 -10 -9 -6 4 -8 11 -5 16 9 14 15 11 15 -7z m-1832 -48 c2
-14 11 -28 20 -31 9 -3 45 -32 80 -64 42 -41 62 -67 62 -84 0 -33 -10 -40 -31
-21 -18 16 -44 11 -34 -7 4 -5 2 -9 -2 -9 -5 0 -14 14 -20 30 -7 18 -18 30
-30 30 -10 0 -30 6 -44 14 -14 7 -37 16 -51 19 -24 6 -25 6 -14 -28 6 -19 16
-35 22 -35 10 0 144 -133 144 -143 0 -3 -8 -4 -17 -2 -10 1 -17 9 -15 17 1 8
-20 34 -47 56 -41 35 -50 39 -48 23 1 -11 3 -18 5 -16 3 2 18 -5 34 -16 16
-12 27 -23 24 -26 -3 -3 6 -20 19 -38 14 -17 22 -35 19 -38 -4 -4 1 -9 10 -13
26 -10 38 -41 26 -63 -7 -13 -7 -22 0 -26 5 -3 10 -10 10 -15 0 -13 -29 -20
-36 -8 -4 7 -3 8 4 4 7 -4 12 -3 12 3 0 15 -18 23 -25 11 -4 -6 -11 -8 -16 -5
-5 4 -9 2 -9 -4 0 -22 46 -41 97 -41 63 0 79 -18 58 -66 -7 -18 -18 -34 -23
-38 -6 -3 -13 -24 -17 -47 -5 -29 -13 -43 -29 -49 -12 -4 -28 -15 -35 -24 -19
-23 -31 -20 -31 9 0 14 8 29 21 35 11 7 18 14 15 18 -3 3 4 13 16 21 25 18 33
42 23 78 -5 22 -10 24 -56 22 -27 -2 -52 -6 -55 -10 -2 -5 19 -6 48 -4 l53 4
-53 -11 c-46 -10 -55 -9 -74 8 -18 16 -21 17 -15 2 4 -11 0 -18 -11 -20 -13
-3 -10 -8 13 -21 30 -16 30 -16 5 -17 -18 0 -21 -3 -11 -9 16 -10 -48 -35 -91
-35 -15 0 -24 -4 -22 -8 3 -5 -6 -7 -20 -4 -14 3 -28 0 -32 -5 -3 -5 -10 -7
-15 -4 -10 7 -12 -6 -3 -29 3 -9 14 -16 23 -16 10 0 12 -3 5 -8 -5 -4 -10 -35
-10 -70 1 -69 7 -59 -88 -139 -37 -30 -35 -78 5 -132 17 -24 31 -52 32 -63 1
-11 9 -24 19 -29 10 -5 18 -19 18 -30 0 -17 -5 -20 -32 -17 -28 3 -33 7 -33
29 0 15 -8 36 -19 48 -12 13 -17 29 -14 46 3 14 3 23 0 21 -5 -6 -47 49 -61
81 -15 32 -4 55 23 48 15 -5 17 -4 7 3 -9 7 -10 12 -2 16 19 12 12 61 -14 96
-50 68 -53 155 -7 192 15 11 14 10 -1 -15 -10 -16 -16 -40 -14 -55 4 -27 4
-27 6 3 1 17 8 38 16 48 7 11 11 26 8 35 -5 12 -2 14 11 9 9 -4 15 -3 11 2 -6
10 39 45 70 54 11 4 38 8 60 11 60 7 77 15 70 37 -7 21 10 27 18 7 3 -7 5 -4
5 7 -1 11 3 29 7 40 7 16 5 16 -12 -4 -15 -19 -25 -23 -46 -17 -16 4 -27 13
-27 24 0 15 2 15 10 2 9 -13 10 -13 11 0 0 10 3 8 9 -5 5 -11 9 -14 9 -7 1 7
5 11 10 7 5 -3 12 -2 15 3 3 5 0 9 -7 10 -28 2 -46 9 -61 21 -9 7 -16 10 -16
6 0 -4 -6 -2 -14 4 -11 9 -20 10 -36 1 -23 -12 -60 -5 -60 12 0 6 13 8 33 5
28 -4 33 -2 32 13 -1 10 -6 24 -11 32 -16 21 -18 78 -2 78 10 0 10 2 -1 9 -7
5 -14 22 -15 39 -1 17 -7 37 -14 44 -6 6 -12 16 -12 21 0 5 12 -5 26 -22 14
-17 23 -34 20 -39 -3 -5 1 -9 9 -9 8 0 15 4 15 8 0 14 -62 79 -70 74 -9 -5
-20 18 -20 41 0 25 15 15 63 -42 l47 -56 -6 -77 c-6 -73 -5 -78 17 -92 40 -26
73 -30 85 -11 6 9 8 25 5 35 -6 17 -8 17 -20 3 -17 -20 -31 -12 -30 17 1 20 2
20 9 -3 7 -21 8 -18 9 18 1 24 -5 55 -13 70 -8 15 -17 50 -22 77 -4 28 -14 56
-23 62 -14 11 -14 14 -1 23 13 9 13 10 0 10 -9 0 -1 12 20 30 31 26 33 29 13
30 -12 0 -25 5 -28 10 -7 12 12 12 40 1 13 -6 32 -2 56 10 33 17 37 17 52 1
16 -15 17 -15 17 1 0 11 -12 22 -30 28 -16 6 -30 15 -30 19 0 5 15 3 33 -5 22
-9 33 -21 35 -39z m1204 27 c-2 -16 -10 -34 -16 -42 -9 -12 -8 -13 3 -6 11 6
13 4 8 -8 -3 -9 -3 -16 1 -15 4 1 17 -3 28 -10 12 -6 25 -8 30 -4 5 4 2 -1 -5
-10 -19 -25 -91 -56 -136 -59 -75 -4 -95 1 -127 30 l-32 28 36 12 c32 10 37
17 43 52 7 40 14 46 32 28 7 -7 21 -6 48 5 43 18 80 22 55 6 -8 -5 -10 -10 -4
-10 6 0 17 7 24 15 17 20 18 19 12 -12z m485 21 c-3 -3 -12 -4 -19 -1 -8 3 -5
6 6 6 11 1 17 -2 13 -5z m68 -4 c-3 -5 -12 -10 -18 -10 -7 0 -6 4 3 10 19 12
23 12 15 0z m150 -26 c28 -20 40 -33 28 -29 -19 5 -22 3 -16 -12 6 -16 5 -16
-10 -4 -9 7 -14 17 -11 22 3 5 -2 9 -11 9 -9 0 -15 6 -12 13 2 6 -5 17 -17 24
-12 7 -16 12 -11 13 6 0 33 -16 60 -36z m375 21 c-7 -8 -19 -15 -26 -15 -8 0
-14 -2 -14 -4 0 -2 -3 -13 -6 -23 -6 -16 -5 -16 10 2 14 16 17 17 12 3 -3 -10
-1 -20 4 -23 6 -4 10 1 10 9 0 23 9 20 78 -24 54 -36 62 -44 60 -69 -1 -19 -7
-27 -15 -24 -9 3 -13 -4 -13 -21 0 -15 -10 -55 -21 -89 -12 -34 -21 -75 -21
-91 1 -35 -8 -28 -18 16 l-9 33 0 -40 c0 -22 -3 -53 -7 -69 -7 -29 -7 -29 32
-22 23 4 49 18 63 33 21 24 23 33 17 93 l-7 66 54 57 54 57 10 -55 c5 -30 7
-53 5 -50 -3 3 -15 -3 -26 -12 -15 -14 -18 -14 -8 -2 6 9 9 19 5 22 -3 4 0 14
7 22 8 9 9 19 4 23 -5 4 -8 5 -7 3 2 -2 -10 -12 -26 -22 -32 -19 -59 -59 -41
-59 5 0 10 5 10 10 0 6 4 10 8 10 5 0 9 -7 9 -15 0 -8 -5 -15 -11 -15 -5 0 -1
-7 10 -15 11 -8 14 -15 6 -15 -10 0 -10 -4 0 -20 11 -17 10 -22 -2 -31 -12 -8
-12 -12 -2 -16 10 -4 8 -9 -7 -20 -12 -8 -19 -18 -16 -23 10 -15 -5 -36 -28
-37 -12 -1 -23 -7 -25 -13 -2 -5 -11 -10 -20 -10 -15 -1 -15 -2 1 -14 21 -16
22 -30 2 -22 -8 3 -15 1 -15 -4 0 -16 -32 -12 -52 7 -16 14 -18 14 -18 0 0 -8
6 -17 12 -19 7 -3 13 -13 13 -23 0 -24 39 -45 83 -45 43 0 123 -41 155 -80 32
-38 51 -98 36 -116 -6 -7 -7 -19 -3 -25 5 -8 3 -9 -6 -4 -10 6 -12 4 -7 -8 3
-10 2 -17 -3 -17 -6 0 -9 -3 -8 -7 1 -5 -6 -22 -15 -40 -21 -40 -22 -79 -2
-87 8 -3 20 -17 25 -32 9 -22 6 -31 -20 -60 -16 -19 -30 -46 -30 -60 0 -14
-11 -36 -25 -50 -18 -18 -24 -32 -19 -46 7 -23 -9 -38 -43 -38 -29 0 -31 35
-3 50 13 7 20 21 20 40 0 17 4 30 9 30 5 0 19 16 31 36 17 27 21 45 17 75 -6
43 13 52 23 11 4 -16 9 -19 20 -12 12 8 12 10 1 10 -7 0 -11 6 -7 15 3 8 1 14
-4 12 -5 -1 -16 7 -25 18 -9 11 -14 15 -11 8 13 -25 -13 -21 -52 7 -58 41 -71
89 -48 171 14 52 14 63 2 80 -12 17 -14 18 -20 4 -3 -9 -2 -13 3 -10 5 3 13 0
17 -7 4 -7 3 -10 -1 -5 -5 4 -17 0 -27 -10 -11 -9 -18 -11 -18 -5 0 7 4 12 9
12 5 0 8 8 6 18 -2 9 -4 22 -4 27 -1 6 -5 3 -10 -5 -6 -8 -7 -18 -5 -22 3 -4
0 -8 -5 -8 -6 0 -11 3 -11 8 0 4 -24 8 -53 8 -50 2 -51 2 -20 -10 43 -15 53
-28 14 -16 -38 11 -93 44 -112 67 -13 15 -12 15 9 4 27 -14 63 -6 56 13 -3 7
2 19 11 26 19 16 19 26 -1 34 -11 4 -22 -1 -32 -15 -13 -19 -20 -20 -78 -14
l-64 7 0 -35 c0 -27 8 -41 39 -68 39 -33 57 -64 41 -74 -11 -7 -90 46 -90 61
0 6 -14 38 -30 70 -45 85 -40 98 41 104 64 5 99 20 99 44 0 6 -4 5 -9 -3 -7
-11 -11 -10 -21 5 -11 18 -11 18 -7 -3 7 -32 -21 -39 -33 -7 -6 14 -10 31 -10
37 1 22 27 60 51 74 22 13 22 13 2 8 -56 -15 -29 42 70 145 42 45 77 85 77 90
0 4 -7 13 -16 20 -12 11 -15 11 -12 0 2 -8 -4 -15 -12 -15 -8 -1 -22 -4 -30
-7 -8 -4 -24 -8 -35 -10 -11 -2 -27 -18 -35 -35 -15 -32 -38 -47 -26 -18 3 10
-1 15 -13 15 -10 0 -22 -7 -25 -16 -8 -21 -26 -8 -26 19 0 24 110 139 143 150
9 4 17 16 17 30 0 16 10 28 33 40 41 20 42 20 27 2z m-1925 -13 c-2 -28 -14
-42 -32 -35 -10 4 -14 2 -10 -4 9 -14 -24 -26 -36 -14 -7 7 -4 13 9 17 10 4
22 12 27 18 5 8 11 6 18 -4 9 -13 10 -13 6 1 -3 9 0 22 6 28 14 14 14 14 12
-7z m130 8 c-3 -5 -16 -10 -28 -9 -21 0 -21 1 -2 9 28 12 37 12 30 0z m-58 -6
c-3 -3 -12 -4 -19 -1 -8 3 -5 6 6 6 11 1 17 -2 13 -5z m508 -4 c3 -5 1 -10 -4
-10 -6 0 -11 5 -11 10 0 6 2 10 4 10 3 0 8 -4 11 -10z m-1030 -18 c-3 -3 -11
0 -18 7 -9 10 -8 11 6 5 10 -3 15 -9 12 -12z m2435 8 c0 -5 -8 -10 -17 -10
-15 0 -16 2 -3 10 19 12 20 12 20 0z m-2703 -83 c30 -39 39 -55 25 -48 -11 6
-30 23 -41 37 -12 15 -21 23 -21 18 0 -5 15 -27 33 -49 30 -37 30 -38 5 -20
-15 11 -38 43 -52 72 -48 97 -28 93 51 -10z m3003 13 c-21 -41 -76 -99 -95
-100 -5 0 5 12 23 26 33 26 68 81 58 92 -3 3 -6 0 -6 -6 0 -15 -59 -82 -72
-82 -10 0 35 62 81 113 34 37 40 14 11 -43z m-2595 32 c-3 -3 -11 0 -18 7 -9
10 -8 11 6 5 10 -3 15 -9 12 -12z m2165 13 c0 -2 -9 -9 -20 -15 -12 -6 -20 -7
-20 -1 0 5 8 12 18 14 9 3 18 5 20 6 1 0 2 -1 2 -4z m185 -5 c-3 -5 -16 -10
-28 -9 -21 0 -21 1 -2 9 28 12 37 12 30 0z m-437 -29 c-7 -12 -19 -19 -26 -16
-10 3 -12 -1 -7 -18 5 -19 5 -20 -5 -4 -9 14 -9 22 0 32 7 8 16 13 20 10 4 -3
11 2 14 11 4 9 9 14 12 11 3 -3 -1 -15 -8 -26z m-1452 -27 c-4 -9 1 -14 14
-14 11 0 20 -7 20 -15 0 -8 -4 -15 -10 -15 -5 0 -10 5 -10 11 0 7 -12 8 -32 4
l-33 -7 20 22 c11 12 19 24 18 26 -2 2 -3 12 -3 22 1 16 1 16 11 -1 6 -10 8
-25 5 -33z m-192 10 c4 -10 2 -13 -7 -8 -8 5 -7 2 2 -9 11 -15 11 -17 -2 -17
-16 0 -30 26 -21 41 8 14 21 11 28 -7z m1041 -174 c22 -141 7 -228 -45 -275
l-23 -20 23 45 c29 57 37 165 20 284 -7 48 -14 85 -17 83 -2 -3 1 -61 8 -130
11 -125 8 -183 -11 -172 -10 6 -15 -14 -12 -48 1 -10 -2 -16 -7 -13 -5 3 -12
-1 -15 -10 -3 -8 -2 -12 4 -9 6 3 10 4 10 1 0 -16 -64 -35 -113 -34 l-54 1 28
24 c28 24 65 113 56 136 -3 6 -6 2 -6 -11 -1 -13 -5 -20 -11 -17 -5 3 -7 0 -4
-9 6 -15 -24 -82 -33 -73 -3 3 -15 -5 -27 -18 -14 -16 -36 -25 -68 -28 -56 -5
-70 6 -94 77 -9 26 -18 45 -20 43 -5 -5 25 -97 39 -117 5 -8 -9 4 -30 27 -22
23 -43 40 -46 37 -2 -3 8 -20 24 -37 29 -31 29 -32 9 -35 -26 -4 -44 18 -67
83 -24 67 -21 162 6 260 25 86 41 116 41 73 0 -15 -5 -29 -10 -31 -6 -3 -5 -4
2 -3 7 1 14 15 16 29 2 15 7 27 12 27 5 0 7 -17 5 -37 -4 -35 -4 -35 4 -8 6
25 9 27 15 13 5 -10 12 -16 16 -13 4 3 19 -4 33 -15 41 -33 77 -42 109 -29 15
6 25 15 22 20 -3 5 1 6 9 3 8 -3 20 3 28 12 12 15 12 16 -6 11 -11 -3 -33 -9
-50 -13 -26 -6 -27 -8 -10 -15 15 -6 12 -8 -16 -8 -24 -1 -51 9 -82 30 -58 38
-72 57 -20 27 59 -36 142 -32 215 9 54 31 56 31 53 10 -1 -12 -6 -31 -10 -42
-6 -19 -6 -19 9 -1 14 17 15 15 19 -35 4 -50 4 -49 3 8 -1 38 2 61 9 60 5 -1
9 9 8 23 -2 21 1 19 18 -13 11 -20 26 -82 34 -137z m-1714 73 c12 -14 9 -13
-16 2 l-30 19 24 -27 c15 -17 20 -27 11 -27 -17 0 -86 75 -93 100 -4 14 5 11
43 -16 26 -19 54 -42 61 -51z m1769 58 c35 -25 72 -82 66 -103 -2 -10 0 -16 5
-12 5 3 9 3 9 0 0 -2 3 -12 7 -22 4 -12 3 -15 -5 -10 -8 5 -10 2 -6 -8 3 -9
10 -13 15 -10 9 5 14 -15 11 -49 -1 -10 3 -15 8 -12 6 3 10 1 10 -6 0 -7 11
-26 23 -43 13 -17 29 -41 35 -53 10 -18 9 -21 -6 -18 -9 1 -16 8 -14 15 2 8
-3 10 -13 7 -8 -4 -15 -2 -15 3 0 6 -5 10 -11 10 -5 0 -7 -4 -4 -10 6 -9 -8
-14 -28 -11 -5 1 -6 -3 -2 -9 3 -5 0 -13 -9 -16 -9 -3 -12 -12 -9 -21 5 -12 3
-14 -7 -8 -8 5 -11 4 -7 -2 3 -5 0 -31 -8 -58 -17 -55 -20 -141 -5 -150 6 -3
15 -3 21 1 8 4 7 9 -2 15 -8 5 -9 9 -3 9 6 0 17 -7 24 -15 10 -12 7 -15 -15
-21 -42 -10 -58 14 -63 93 -2 51 0 64 8 53 8 -11 9 -4 5 30 -4 30 -2 38 3 25
13 -28 24 72 24 199 -1 148 -12 129 -14 -25 -1 -104 -3 -121 -8 -74 l-7 60 -2
-50 c-1 -27 -6 -70 -11 -95 -5 -29 -6 2 -3 86 3 72 2 153 -2 180 l-8 49 -13
-40 -13 -40 5 45 c3 25 1 56 -5 70 -5 14 -10 18 -11 10 -1 -13 -2 -13 -9 0 -5
8 -12 26 -16 39 -7 22 -5 23 21 17 16 -4 40 -15 54 -25z m1270 -3 c-15 -29
-59 -77 -82 -89 -29 -16 -20 5 10 23 25 16 25 17 5 18 -12 0 -23 -5 -25 -11
-2 -7 -10 -10 -17 -8 -8 3 7 18 37 38 28 17 56 39 63 47 17 21 23 10 9 -18z
m-766 -28 c-5 -5 -9 4 -10 23 -1 30 -1 30 9 9 6 -14 7 -26 1 -32z m-1028 24
c-3 -9 -6 -22 -6 -30 0 -9 -5 -12 -12 -8 -6 4 -8 3 -5 -4 4 -5 4 -18 1 -27 -5
-13 -8 -14 -15 -3 -6 9 -9 6 -9 -12 0 -15 -3 -20 -8 -13 -4 6 -7 -31 -7 -82 0
-51 4 -88 8 -82 5 7 6 3 2 -9 -3 -12 -10 -42 -15 -65 l-9 -44 4 51 c2 27 0 57
-5 65 -7 10 -9 8 -8 -11 1 -14 0 -45 -2 -70 l-3 -45 -6 55 c-3 30 -10 54 -16
53 -5 -1 -20 7 -31 18 -12 11 -36 21 -53 21 -17 1 -31 5 -31 9 0 15 45 39 75
40 25 1 26 2 9 7 -21 7 -21 9 17 77 22 39 53 82 70 98 33 30 65 37 55 11z
m-548 -49 c0 -25 -5 -45 -10 -45 -6 0 -8 6 -5 14 3 8 1 17 -6 19 -9 3 -9 10 1
26 7 12 10 27 6 33 -4 7 -3 8 4 4 6 -4 11 -27 10 -51z m158 20 c-3 -9 3 -20
14 -27 29 -18 25 -28 -12 -29 -31 -2 -31 -2 -5 -6 15 -2 27 -9 27 -14 0 -6 -4
-8 -9 -5 -4 3 -16 -1 -26 -8 -16 -12 -15 -12 13 -8 24 3 32 0 32 -11 0 -8 -6
-15 -12 -14 -45 1 -62 -3 -50 -15 14 -14 16 -48 3 -48 -11 0 -28 45 -35 96 -6
43 13 84 40 84 8 0 14 5 14 10 0 6 3 10 6 10 3 0 4 -7 0 -15z m-685 -18 c-10
-9 -11 -8 -5 6 3 10 9 15 12 12 3 -3 0 -11 -7 -18z m755 -12 c16 -38 18 -103
5 -124 -14 -21 12 -53 76 -96 39 -26 52 -39 43 -45 -15 -9 -38 -3 -61 17 -9 8
-29 18 -45 22 -32 8 -57 41 -36 48 6 3 12 9 12 14 0 4 -6 6 -14 3 -12 -5 -14
9 -13 78 1 46 -2 91 -7 101 -6 13 -4 17 8 17 10 0 23 -15 32 -35z m1344 0 c0
-3 -4 -4 -9 -1 -5 4 -12 0 -14 -6 -3 -7 -6 0 -6 15 -1 25 1 27 14 13 8 -8 15
-17 15 -21z m-543 -7 c-3 -8 -6 -5 -6 6 -1 11 2 17 5 13 3 -3 4 -12 1 -19z
m-1655 -13 c6 -14 8 -28 4 -33 -9 -8 -36 26 -36 45 0 22 20 14 32 -12z m-68
-36 c11 -12 -1 -11 -49 5 -19 7 -19 6 -1 -6 10 -7 28 -21 40 -30 18 -15 19
-17 4 -18 -19 0 -83 52 -98 80 -9 17 -7 17 42 -1 28 -10 56 -24 62 -30z m2263
19 c-3 -8 -6 -5 -6 6 -1 11 2 17 5 13 3 -3 4 -12 1 -19z m741 -23 c-29 -28
-56 -45 -70 -44 -15 0 -18 3 -8 6 25 9 72 45 66 50 -2 3 -11 1 -18 -3 -7 -5
-24 -10 -38 -11 -24 -3 -24 -2 -5 9 26 16 86 37 105 37 8 0 -6 -19 -32 -44z
m-2312 6 c-4 -5 0 -12 6 -14 8 -3 6 -6 -4 -6 -18 -1 -24 10 -11 22 9 10 15 8
9 -2z m2048 -13 c-4 -13 -7 -41 -6 -63 0 -39 0 -39 -9 -10 -8 28 4 95 17 95 3
0 2 -10 -2 -22z m-2663 -19 c8 -15 6 -17 -8 -12 -41 14 -60 46 -23 36 11 -3
25 -14 31 -24z m2802 -11 c-20 -20 -20 -20 -26 2 -3 12 -3 19 0 16 3 -3 13 2
21 11 12 11 17 12 20 3 3 -7 -5 -21 -15 -32z m-2173 2 c0 -5 -7 -10 -15 -10
-8 0 -15 5 -15 10 0 6 7 10 15 10 8 0 15 -4 15 -10z m1550 0 c0 -5 -5 -10 -11
-10 -5 0 -7 5 -4 10 3 6 8 10 11 10 2 0 4 -4 4 -10z m-2245 -37 c3 -10 0 -11
-15 -3 -10 5 -27 10 -37 9 -11 0 -2 -8 22 -19 35 -17 36 -19 10 -13 -39 7 -56
17 -77 40 -17 18 -16 18 37 9 30 -6 57 -16 60 -23z m185 22 c0 -8 -4 -15 -10
-15 -5 0 -7 7 -4 15 4 8 8 15 10 15 2 0 4 -7 4 -15z m678 -57 c8 -53 7 -58
-10 -58 -15 0 -18 8 -18 58 0 32 3 62 7 66 9 9 10 6 21 -66z m879 20 c-2 -13
-4 -5 -4 17 -1 22 1 32 4 23 2 -10 2 -28 0 -40z m1277 31 c-24 -26 -67 -49
-91 -48 -11 0 -6 6 15 15 42 18 41 24 -5 18 -46 -5 -21 8 42 24 59 14 60 14
39 -9z m-2959 -27 c-2 -9 -4 -19 -4 -21 -1 -2 -10 4 -21 14 -15 13 -17 21 -9
26 18 11 37 0 34 -19z m632 22 c-3 -3 -12 -4 -19 -1 -8 3 -5 6 6 6 11 1 17 -2
13 -5z m1550 0 c-3 -3 -12 -4 -19 -1 -8 3 -5 6 6 6 11 1 17 -2 13 -5z m641
-16 c-17 -25 -39 -30 -46 -10 -2 6 7 16 20 21 36 15 42 13 26 -11z m-2197 -12
c5 3 9 0 9 -5 0 -6 -7 -11 -15 -11 -8 0 -15 8 -14 18 0 10 3 12 6 4 2 -6 9
-10 14 -6z m2056 -8 c-3 -8 -6 -5 -6 6 -1 11 2 17 5 13 3 -3 4 -12 1 -19z
m-499 -23 c0 -14 -4 -25 -9 -25 -5 0 -8 11 -7 25 1 14 5 25 9 25 4 0 7 -11 7
-25z m-2243 -7 c-19 -11 -19 -11 0 -19 18 -7 18 -8 2 -8 -20 -1 -87 25 -87 33
0 4 24 6 53 6 44 -1 49 -2 32 -12z m82 -3 c0 -23 -24 -25 -43 -4 -17 18 -16
19 13 19 19 0 30 -5 30 -15z m370 -7 c-3 -8 -6 -5 -6 6 -1 11 2 17 5 13 3 -3
4 -12 1 -19z m151 5 c2 -7 -1 -13 -8 -13 -6 0 -8 5 -5 10 11 17 -11 11 -29 -8
-15 -18 -15 -19 14 -17 18 1 30 -3 30 -11 0 -8 -8 -10 -22 -7 -13 3 -20 2 -16
-2 4 -4 -3 -15 -15 -25 -21 -17 -22 -17 -33 4 -9 18 -7 26 20 54 30 32 56 38
64 15z m1777 -20 c22 -20 34 -32 26 -28 -11 6 -13 4 -8 -7 9 -25 -4 -30 -27
-11 -16 15 -16 12 4 -17 l25 -35 -47 40 c-42 36 -45 41 -31 53 16 11 16 12 0
12 -10 0 -14 5 -11 15 9 23 25 18 69 -22z m503 25 c-5 -15 -57 -42 -65 -34 -3
3 5 10 18 15 14 6 18 10 9 11 -10 1 -9 4 5 10 29 12 37 12 33 -2z m122 6 c0
-8 -67 -34 -87 -34 -12 1 -8 6 12 15 30 14 30 14 3 9 -17 -4 -28 -2 -28 5 0 7
20 11 50 11 28 0 50 -2 50 -6z m-2333 -26 c-3 -8 -6 -5 -6 6 -1 11 2 17 5 13
3 -3 4 -12 1 -19z m1061 -30 c0 -29 -4 -71 -10 -93 -10 -38 -10 -39 -22 -16
-10 18 -9 32 5 74 10 29 18 60 19 70 0 9 2 17 4 17 2 0 4 -24 4 -52z m-659 28
c9 -11 9 -20 2 -34 -10 -20 -12 -19 -41 8 -16 15 -30 31 -30 34 0 12 58 5 69
-8z m-1034 -26 c-3 -5 -18 -10 -33 -9 -24 0 -25 1 -7 9 28 12 47 12 40 0z
m652 4 c-3 -3 -12 -4 -19 -1 -8 3 -5 6 6 6 11 1 17 -2 13 -5z m2233 -5 c34
-12 30 -19 -20 -34 -24 -7 -24 -7 -5 9 20 15 20 15 -2 16 -13 0 -23 5 -23 10
0 13 10 13 50 -1z m-1962 -26 c34 -19 51 -23 82 -18 23 4 41 2 44 -4 4 -6 1
-9 -7 -5 -20 7 -32 -15 -18 -29 9 -9 14 -8 21 3 7 11 10 11 10 2 0 -21 -29
-26 -49 -8 -10 10 -36 19 -57 21 -22 2 -52 9 -69 15 l-30 10 35 -4 c32 -5 33
-4 11 7 -28 14 -77 -10 -75 -36 1 -9 -5 -17 -12 -17 -12 0 -13 4 -3 23 6 12
18 30 27 40 19 22 9 23 -13 1 -15 -15 -17 -15 -30 2 -7 11 -17 16 -21 11 -4
-4 -2 -7 4 -7 7 0 12 -4 12 -10 0 -5 -7 -7 -16 -3 -14 5 -14 3 -3 -16 13 -19
14 -19 21 -3 6 14 7 14 7 -5 1 -26 -13 -37 -36 -29 -13 5 -13 9 -2 23 13 14
11 15 -16 10 -17 -3 -54 -11 -84 -16 -29 -6 -56 -13 -59 -16 -3 -3 -5 -87 -3
-186 1 -126 -2 -185 -10 -195 -6 -8 -27 -13 -48 -13 l-36 2 35 7 c19 4 31 8
25 9 -5 1 -4 5 4 10 15 10 15 7 12 208 -2 108 -6 145 -17 154 -34 28 0 63 47
47 22 -8 38 -4 81 16 72 35 172 35 236 -1z m1277 17 c3 -5 -1 -10 -9 -10 -9 0
-16 5 -16 10 0 6 4 10 9 10 6 0 13 -4 16 -10z m607 -5 c1 -5 -11 -13 -28 -16
-16 -3 -28 -11 -26 -17 3 -18 -27 -27 -41 -12 -10 10 -8 12 7 6 16 -5 17 -4 6
9 -11 13 -10 15 2 10 8 -3 23 4 33 15 19 21 45 24 47 5z m-2795 -18 c4 -7 -7
-8 -32 -4 -52 9 -64 23 -15 19 22 -2 43 -9 47 -15z m643 13 c0 -5 -7 -10 -15
-10 -8 0 -15 5 -15 10 0 6 7 10 15 10 8 0 15 -4 15 -10z m-117 -30 c-3 -11 0
-34 7 -51 18 -43 1 -53 -32 -19 l-28 29 26 30 c30 36 34 38 27 11z m1667 -5
c0 -14 -6 -25 -13 -25 -8 0 -13 9 -11 23 3 28 2 27 14 27 6 0 10 -11 10 -25z
m-2070 2 c0 -5 -7 -7 -15 -3 -8 3 -15 1 -15 -4 0 -5 -7 -7 -15 -4 -8 4 -12 10
-9 15 7 11 54 8 54 -4z m-115 -7 c-17 -7 -14 -9 15 -10 l35 -2 -29 -8 c-31
-10 -71 4 -61 21 4 5 18 9 33 8 24 0 25 -1 7 -9z m1853 -46 c12 -25 19 -50 16
-56 -4 -6 -3 -8 3 -5 17 11 52 -85 78 -208 13 -62 28 -122 34 -133 6 -11 8
-29 5 -39 -4 -13 -3 -14 3 -5 7 9 12 6 21 -13 17 -38 15 -70 -8 -96 -17 -21
-19 -21 -13 -4 3 11 3 17 -1 13 -4 -3 -9 -12 -11 -20 -9 -39 -18 -57 -26 -52
-5 3 -9 13 -9 22 0 9 -11 31 -25 47 -23 28 -24 29 -25 8 0 -27 -16 -38 -24
-17 -10 27 -7 54 14 94 11 22 20 47 20 57 0 10 -31 81 -70 157 -71 142 -76
166 -46 205 7 9 7 12 1 9 -7 -4 -11 3 -11 16 0 15 6 23 19 23 16 2 17 0 6 -10
-8 -7 -12 -11 -10 -10 2 2 9 -2 16 -7 8 -7 11 -3 9 13 -1 12 -3 26 -3 30 -1 5
-5 6 -10 2 -5 -3 -13 0 -17 6 -4 8 -3 9 4 5 7 -4 12 -1 12 8 0 28 26 6 48 -40z
m979 39 c6 -17 -37 -26 -67 -14 -22 8 -22 10 -5 11 17 0 18 2 5 10 -11 8 -5
10 24 8 22 -2 41 -8 43 -15z m-1983 -14 c-8 -14 -34 -10 -34 5 0 9 7 12 20 9
11 -3 17 -9 14 -14z m106 -36 c0 -14 4 -21 10 -18 6 3 10 -1 10 -9 0 -45 -63
-29 -90 24 -11 21 -20 41 -20 43 0 2 20 0 45 -6 38 -9 45 -14 45 -34z m-852
24 c25 -10 28 -16 21 -30 -6 -10 -22 -17 -37 -17 l-27 0 25 21 c20 17 21 19 5
13 -39 -14 -88 -17 -80 -5 6 11 40 29 56 30 4 1 20 -5 37 -12z m1069 -36 c-15
-6 -30 17 -23 35 6 16 8 16 20 -6 6 -14 8 -27 3 -29z m1603 17 c0 -4 -13 -8
-30 -8 -16 0 -30 -5 -30 -11 0 -6 -10 -9 -22 -7 -13 2 -22 9 -21 15 2 7 -4 10
-12 7 -8 -4 -12 -10 -9 -15 8 -14 -10 -11 -32 6 -18 14 -18 14 6 13 14 0 32 2
41 6 10 4 20 3 24 -3 3 -6 11 -11 17 -11 6 0 8 3 5 7 -4 3 -2 12 4 19 8 10 16
10 35 2 13 -6 24 -15 24 -20z m-2117 -100 l-10 -103 -1 115 c-2 85 1 111 9
103 9 -9 9 -39 2 -115z m167 103 c0 -13 -34 -23 -54 -15 -28 11 -18 24 19 24
19 0 35 -4 35 -9z m-661 -22 c-22 -14 -33 -10 -19 6 7 8 17 12 22 9 6 -4 5
-10 -3 -15z m911 17 c0 -2 -8 -10 -17 -17 -16 -13 -17 -12 -4 4 13 16 21 21
21 13z m-450 -16 c0 -5 -2 -10 -4 -10 -3 0 -8 5 -11 10 -3 6 -1 10 4 10 6 0
11 -4 11 -10z m345 -100 c-16 -49 -30 -88 -32 -86 -2 2 8 45 23 95 15 50 30
89 32 86 2 -2 -8 -45 -23 -95z m125 96 c0 -3 -4 -8 -10 -11 -5 -3 -10 -1 -10
4 0 6 5 11 10 11 6 0 10 -2 10 -4z m1090 -6 c0 -5 -4 -10 -10 -10 -5 0 -10 5
-10 10 0 6 5 10 10 10 6 0 10 -4 10 -10z m-1161 -325 c2 6 3 13 2 18 0 4 15 7
35 7 21 0 33 -4 29 -10 -3 -5 -1 -10 5 -10 6 0 9 -4 5 -9 -9 -16 -163 -11
-169 4 -6 16 61 26 68 10 2 -5 6 64 7 155 l3 165 6 -170 c3 -93 7 -165 9 -160z
m-431 290 c-3 -3 -9 2 -12 12 -6 14 -5 15 5 6 7 -7 10 -15 7 -18z m835 18 c13
-8 25 -11 70 -16 52 -7 38 -15 -39 -22 -79 -8 -215 -2 -248 11 -29 11 4 25 43
17 19 -3 31 -2 28 3 -6 11 129 18 146 7z m-379 -58 c4 -19 3 -25 -3 -15 -4 8
-11 29 -15 45 -4 19 -3 25 3 15 4 -8 11 -28 15 -45z m566 45 c0 -5 -5 -10 -11
-10 -5 0 -7 5 -4 10 3 6 8 10 11 10 2 0 4 -4 4 -10z m569 -36 c-2 -25 -7 -48
-12 -51 -6 -4 -8 3 -5 15 3 12 1 23 -6 25 -8 3 -8 10 1 25 10 16 10 22 0 25
-7 3 -4 6 6 6 15 1 18 -6 16 -45z m-1549 22 c0 -3 -4 -8 -10 -11 -5 -3 -10 -1
-10 4 0 6 5 11 10 11 6 0 10 -2 10 -4z m937 -2 c-3 -3 -12 -4 -19 -1 -8 3 -5
6 6 6 11 1 17 -2 13 -5z m-970 -26 c-3 -8 -6 -5 -6 6 -1 11 2 17 5 13 3 -3 4
-12 1 -19z m599 10 c4 -6 3 -8 -3 -5 -7 4 -9 -8 -7 -36 2 -23 6 -112 8 -197 3
-85 9 -189 15 -230 6 -41 15 -115 21 -165 6 -49 19 -146 30 -215 10 -68 17
-127 14 -129 -2 -2 -4 1 -4 8 0 7 -4 10 -9 7 -19 -12 -30 26 -48 174 -10 85
-19 145 -21 134 -2 -12 4 -82 12 -155 9 -73 15 -134 13 -135 -1 -1 -12 5 -24
14 -22 16 -23 27 -33 252 -6 129 -7 264 -3 300 l8 65 6 -55 c5 -51 6 -48 7 29
l2 84 -21 -19 c-18 -17 -37 -19 -150 -19 -87 0 -132 4 -140 12 -10 10 -4 10
26 2 58 -16 241 -8 260 12 16 16 11 54 -6 43 -15 -9 -10 37 11 120 12 43 19
80 17 82 -6 6 -47 -136 -47 -160 0 -14 -3 -17 -11 -9 -7 7 -1 36 20 97 39 111
43 118 57 94z m43 -73 c1 17 6 37 12 45 8 12 9 10 4 -7 -11 -39 56 -163 88
-163 6 0 -2 11 -16 24 -35 33 -59 83 -52 109 5 17 4 19 -4 7 -12 -17 -15 -1
-5 24 5 13 13 10 45 -19 22 -19 44 -35 51 -35 7 0 30 17 52 38 25 24 37 30 32
18 -5 -16 -4 -17 9 -6 23 19 18 3 -16 -59 -34 -59 -86 -121 -103 -121 -5 0
-21 10 -35 23 l-25 22 16 -25 c32 -51 75 -33 136 57 21 32 44 72 50 88 6 18
11 23 11 12 2 -42 -99 -270 -117 -264 -4 1 -7 -1 -7 -4 0 -4 -9 -16 -19 -28
-11 -12 -14 -21 -8 -21 18 0 72 72 105 142 17 37 34 65 37 63 4 -2 12 25 19
61 15 74 37 102 26 33 -9 -56 -42 -222 -54 -274 -6 -22 -8 -41 -6 -43 6 -6 33
91 49 178 9 47 20 105 24 130 l9 45 7 -70 c11 -104 14 -108 15 -21 0 44 3 77
6 75 11 -12 36 -223 40 -347 4 -127 3 -137 -11 -74 -2 12 -8 22 -13 22 -5 0
-5 -19 1 -42 5 -24 11 -61 12 -83 2 -22 6 -56 10 -75 7 -41 -4 -14 -24 58 -21
79 -18 39 5 -63 17 -77 24 -93 27 -70 4 21 5 17 5 -15 0 -25 3 -56 7 -70 5
-18 4 -21 -3 -11 -7 11 -10 7 -13 -20 -3 -31 -5 -29 -17 26 -13 60 -41 138
-47 133 -1 -2 6 -28 16 -58 11 -30 19 -80 19 -110 l-1 -55 -13 71 c-11 64 -42
150 -51 141 -2 -2 6 -28 17 -58 12 -30 23 -87 25 -129 l4 -75 -29 60 c-35 72
-38 69 -10 -9 16 -48 18 -61 7 -67 -8 -6 -18 -2 -27 9 -12 15 -12 14 -6 -8 7
-22 6 -23 -8 -12 -12 11 -15 10 -13 -5 0 -11 -5 -18 -16 -17 -10 1 -16 -3 -15
-10 1 -6 -5 -10 -13 -8 -8 2 -12 0 -8 -4 4 -4 2 -14 -4 -22 -10 -11 -15 -1
-30 55 -15 58 -17 62 -13 23 2 -25 7 -54 11 -65 5 -11 4 -16 -3 -12 -5 3 -15
30 -21 59 -7 29 -14 62 -16 73 -3 11 -3 -14 -1 -55 3 -58 2 -71 -7 -56 -7 12
-8 54 -4 120 3 55 2 126 -4 156 -8 48 -8 43 -5 -40 5 -105 0 -97 -35 60 -18
82 -19 83 -14 25 3 -33 12 -98 19 -145 22 -128 24 -160 14 -160 -5 0 -9 3 -10
8 -2 30 -10 72 -18 111 -23 105 -30 141 -41 231 -6 52 -18 140 -26 195 -8 55
-17 173 -21 262 -5 131 -3 166 8 179 12 15 15 11 20 -37 3 -30 7 -41 8 -24z
m401 40 c0 -5 -5 -3 -10 5 -5 8 -10 20 -10 25 0 6 5 3 10 -5 5 -8 10 -19 10
-25z m-1750 5 l-25 -8 28 -1 c16 -1 26 -5 22 -11 -4 -6 -11 -8 -16 -5 -14 9
-49 -5 -46 -18 1 -6 -4 -11 -12 -12 -8 0 -16 -6 -19 -14 -3 -9 0 -11 8 -6 9 5
10 2 6 -13 -4 -11 0 -38 9 -59 l15 -38 -20 25 c-11 14 -20 36 -21 50 -2 23 -2
23 -6 3 -2 -12 2 -34 10 -50 16 -32 14 -98 -4 -120 -15 -17 -71 -14 -77 5 -3
11 -1 11 17 0 18 -11 23 -11 31 2 15 24 12 63 -10 105 -11 22 -20 48 -20 58 0
55 68 118 125 116 29 -1 30 -1 5 -9z m439 -7 c-18 -21 -108 -63 -134 -62 -11
0 -2 6 21 13 47 15 104 47 104 58 0 4 5 8 11 8 8 0 7 -6 -2 -17z m1071 10 c0
-2 -15 -10 -32 -18 -27 -12 -29 -14 -11 -15 12 0 25 5 28 10 3 6 12 10 18 10
7 0 1 -9 -13 -19 -21 -17 -27 -18 -50 -6 -54 28 -53 40 6 41 30 0 54 -2 54 -3z
m1555 -7 c36 -15 65 -59 65 -98 0 -13 -11 -45 -26 -71 -25 -48 -25 -83 0 -99
16 -11 38 -10 31 2 -3 6 -1 10 4 10 17 0 13 -18 -6 -29 -12 -6 -26 -5 -45 5
-22 11 -28 22 -28 47 -1 26 -2 29 -11 15 -13 -22 3 -55 42 -86 22 -18 29 -31
28 -55 -2 -28 -2 -29 -6 -7 -5 23 -83 107 -83 89 0 -4 16 -22 35 -40 34 -32
46 -71 25 -84 -5 -3 -10 -1 -10 6 0 7 -3 9 -6 6 -4 -4 -1 -13 5 -21 17 -20
-21 -42 -47 -27 -16 10 -15 10 3 12 17 1 16 2 -5 9 -24 8 -24 8 -3 9 35 2 39
41 9 86 -32 47 -34 97 -5 145 27 43 30 102 6 127 -9 11 -14 23 -10 28 5 4 -2
6 -13 3 -12 -3 -28 -2 -35 3 -10 6 -3 9 21 10 l35 1 -30 8 -30 8 28 1 c15 0
43 -5 62 -13z m-2285 -213 c0 -7 -9 -13 -21 -13 -11 0 -17 -4 -14 -10 4 -6 -8
-10 -29 -10 -49 0 -45 16 5 23 22 3 43 7 45 10 2 2 -9 49 -26 105 -16 56 -30
105 -29 109 1 11 69 -199 69 -214z m991 54 c11 -56 24 -146 29 -201 12 -133
13 -339 1 -332 -5 4 -11 0 -14 -6 -3 -7 -5 12 -6 42 -6 170 -13 270 -20 265
-9 -5 -15 32 -27 159 -5 44 -4 67 3 63 5 -4 8 6 5 25 -3 18 -8 25 -12 18 -10
-16 -21 76 -14 107 l7 25 13 -32 c8 -18 23 -78 35 -133z m-1121 53 c0 -89 0
-90 -25 -90 -14 0 -25 5 -25 11 0 16 42 169 47 169 1 0 3 -40 3 -90z m548 -20
c0 -8 -8 8 -18 35 -10 28 -18 57 -18 65 0 8 8 -7 18 -35 10 -27 18 -57 18 -65z
m606 -60 c20 -95 39 -261 34 -290 -3 -15 -6 -7 -7 21 -1 51 -42 279 -66 371
-8 32 -15 61 -14 65 1 17 41 -106 53 -167z m486 133 c0 -5 -5 -15 -10 -23 -8
-12 -10 -11 -10 8 0 12 5 22 10 22 6 0 10 -3 10 -7z m-2013 -26 c-2 -6 -9 -12
-15 -13 -8 -2 -8 0 -2 3 7 3 4 10 -7 19 -17 12 -16 13 5 7 13 -3 21 -10 19
-16z m1600 -45 c-9 -9 -23 -31 -31 -47 -14 -26 -16 -27 -16 -8 0 12 7 28 15
37 9 8 15 18 15 21 -1 11 25 33 29 23 1 -5 -4 -17 -12 -26z m-1153 -5 c4 -19
3 -26 -4 -22 -5 3 -10 18 -10 32 0 32 5 28 14 -10z m300 -31 c-23 -73 -30 -65
-9 9 9 31 19 54 22 52 2 -3 -3 -30 -13 -61z m1263 49 c0 -8 -4 -15 -8 -15 -11
0 -20 16 -12 24 11 11 20 7 20 -9z m-1930 -107 c-3 -21 -17 -52 -31 -69 -14
-17 -23 -35 -20 -41 8 -13 91 -48 114 -48 11 0 25 -7 32 -16 7 -8 21 -24 30
-34 16 -18 38 -54 38 -63 0 -7 -54 5 -68 16 -7 5 -11 17 -10 26 2 9 -4 16 -13
16 -9 0 -23 6 -31 12 -22 19 -121 63 -141 63 -29 0 -30 24 -3 76 14 27 26 45
26 40 0 -5 3 -6 7 -3 3 4 -1 15 -11 26 -9 10 -18 27 -20 37 -3 16 2 19 28 18
47 -1 52 -3 36 -14 -12 -7 -10 -9 7 -7 22 1 22 1 3 22 -11 12 -20 25 -20 31 1
5 12 -4 26 -21 20 -24 24 -38 21 -67z m2351 80 c9 -9 7 -18 -11 -37 -12 -14
-14 -19 -4 -12 14 11 17 11 18 0 1 -8 1 -18 0 -23 -1 -5 6 -3 16 4 28 22 29
24 10 17 -10 -4 -16 -3 -12 2 3 5 -1 11 -7 14 -7 2 -1 4 13 3 28 -1 29 -6 10
-47 -11 -23 -10 -32 9 -69 18 -35 19 -45 8 -55 -21 -19 -106 -47 -119 -39 -7
4 -9 3 -6 -3 8 -13 -34 -48 -55 -45 -17 3 -22 -7 -19 -35 1 -6 -9 -14 -21 -18
-62 -18 -59 -18 -48 10 5 14 19 35 30 47 11 12 20 25 20 30 0 4 19 12 42 19
44 11 118 46 118 54 0 3 -13 24 -30 47 -35 48 -37 71 -10 116 21 35 30 38 48
20z m-2124 -32 c-3 -15 -8 -25 -11 -23 -2 3 -1 17 3 31 3 15 8 25 11 23 2 -3
1 -17 -3 -31z m1702 9 c-4 -26 -13 -26 -18 -1 -3 16 -1 23 8 19 6 -2 11 -11
10 -18z m-1561 -15 c3 -5 1 -10 -4 -10 -6 0 -11 5 -11 10 0 6 2 10 4 10 3 0 8
-4 11 -10z m-745 -50 l2 25 9 -26 c11 -30 -6 -92 -20 -70 -6 9 -15 4 -35 -19
-30 -36 -30 -37 -11 -70 l15 -25 -6 32 c-6 33 8 63 29 63 5 0 3 -8 -6 -18 -23
-25 -21 -48 5 -66 12 -9 17 -16 10 -16 -6 0 -11 -5 -9 -11 4 -21 -20 -20 -44
1 -13 12 -18 18 -10 14 9 -4 12 -2 9 7 -3 8 -10 13 -15 12 -6 -1 -7 13 -3 37
4 22 3 37 -1 34 -5 -3 -9 -13 -10 -22 0 -13 -2 -14 -6 -3 -4 9 9 27 33 47 32
28 38 38 37 71 l0 38 13 -30 c13 -29 13 -30 14 -5z m2190 12 c0 -10 -7 -27
-16 -38 -15 -18 -15 -18 -5 3 15 31 14 39 -9 39 -15 0 -18 -5 -14 -21 4 -15 1
-22 -10 -22 -9 0 -16 4 -16 9 0 4 5 8 11 8 5 0 7 5 4 10 -10 16 4 30 31 30 16
0 24 -6 24 -18z m-1540 -2 c0 -5 -13 -10 -30 -10 -20 0 -30 -5 -30 -15 0 -12
18 -15 99 -15 55 0 112 5 128 10 25 9 26 9 10 -4 -24 -19 -139 -28 -216 -17
-35 6 -65 12 -68 15 -10 9 9 27 23 22 8 -3 14 -1 14 4 0 5 15 11 33 13 17 2
33 5 35 5 1 1 2 -2 2 -8z m1660 0 c0 -5 -2 -10 -4 -10 -3 0 -8 5 -11 10 -3 6
-1 10 4 10 6 0 11 -4 11 -10z m2 -60 c3 -21 0 -30 -9 -30 -8 0 -12 4 -9 9 4 5
0 11 -6 14 -10 3 -10 7 1 20 18 22 18 22 23 -13z m-432 -2 c0 -13 -5 -30 -10
-38 -7 -11 -10 -5 -10 23 0 20 5 37 10 37 6 0 10 -10 10 -22z m-1096 -15 c3
-8 -1 -10 -11 -6 -10 4 -14 2 -10 -5 12 -18 -92 -26 -137 -10 -71 23 -53 34
54 34 68 -1 101 -5 104 -13z m403 7 c14 0 21 -4 18 -10 -3 -5 -1 -10 6 -10 7
0 10 -3 7 -6 -4 -3 -16 -1 -27 5 -17 10 -20 9 -15 -4 8 -21 -52 -20 -106 1
-56 23 -40 38 33 30 33 -3 71 -6 84 -6z m60 4 c-3 -3 -12 -4 -19 -1 -8 3 -5 6
6 6 11 1 17 -2 13 -5z m14 -83 c6 9 9 -63 7 -201 -3 -195 -10 -313 -18 -300
-2 3 -6 86 -10 185 l-6 180 -2 -172 c-1 -108 -6 -173 -12 -173 -15 0 -16 482
-2 505 4 5 10 -15 13 -45 l6 -55 3 60 c2 37 5 49 7 31 4 -23 7 -26 14 -15z
m1049 14 c0 -17 -5 -25 -17 -25 -11 0 -14 3 -7 8 6 4 10 15 8 25 -1 9 2 17 7
17 5 0 9 -11 9 -25z m-1595 -32 c20 -150 58 -241 136 -327 70 -77 121 -112
294 -202 153 -79 261 -144 326 -195 45 -36 51 -36 96 -2 l36 27 -8 -24 c-9
-30 -3 -24 -44 -48 l-33 -20 -60 44 c-78 57 -193 126 -343 204 -154 81 -221
126 -280 192 -82 91 -145 246 -145 359 0 55 18 49 25 -8z m44 20 c-1 -16 2
-36 6 -45 5 -13 2 -17 -13 -15 -20 1 -25 36 -7 49 6 5 5 8 -2 8 -7 0 -13 7
-13 15 0 8 7 15 15 15 10 0 15 -9 14 -27z m37 -53 c19 -141 95 -257 224 -341
30 -20 134 -78 230 -129 96 -51 197 -108 223 -128 l49 -35 75 52 c41 29 72 48
68 42 -3 -7 -38 -34 -76 -60 l-70 -49 -77 52 c-42 29 -140 85 -217 126 -175
91 -259 146 -317 208 -54 58 -104 152 -117 219 -16 81 -20 123 -13 123 4 0 13
-36 18 -80z m1509 11 c-2 -9 -4 -18 -5 -21 -1 -3 -2 -13 -1 -22 1 -10 -4 -18
-13 -18 -9 0 -16 5 -16 11 0 5 4 8 9 4 6 -3 8 8 4 28 -4 26 -1 34 10 34 8 0
13 -7 12 -16z m-305 -66 c103 -61 137 -90 120 -100 -9 -5 -11 -4 -6 3 4 7 -2
16 -16 21 -13 5 -58 32 -101 60 -43 29 -86 51 -95 49 -12 -3 -3 -13 29 -33 56
-36 56 -48 4 -136 -46 -78 -51 -87 -38 -74 24 23 93 150 89 162 -8 19 5 16 34
-8 23 -18 23 -19 3 -9 -16 7 -23 7 -23 0 0 -6 -23 -47 -51 -91 -28 -45 -48
-83 -46 -85 2 -2 25 32 51 76 47 78 66 102 66 80 0 -26 -346 -529 -364 -530
-5 0 -15 -8 -22 -17 -21 -28 -17 3 7 50 12 23 55 101 95 174 48 85 72 138 68
150 -4 13 -3 14 4 5 7 -10 25 14 67 90 32 57 64 110 72 119 13 15 10 19 -26
40 -41 23 -47 30 -34 42 14 15 41 5 113 -38z m-1230 20 c0 -8 0 -18 0 -22 0
-4 -6 -8 -13 -9 -9 -1 -14 7 -14 22 0 14 5 24 13 24 8 0 14 -7 14 -15z m1271
-18 c-16 -16 -26 0 -10 19 9 11 15 12 17 4 2 -6 -1 -17 -7 -23z m243 -22 c-4
-8 -10 -12 -15 -9 -14 8 -10 24 6 24 9 0 12 -6 9 -15z m-1489 -41 c19 -45 19
-50 0 -34 -8 7 -15 21 -15 31 0 10 -8 23 -17 28 -17 10 -17 10 -1 11 11 0 24
-14 33 -36z m1485 -4 c0 -5 -4 -12 -10 -15 -5 -3 -10 -4 -10 -1 0 2 -3 12 -6
20 -5 12 -2 15 10 10 9 -3 16 -10 16 -14z m-413 -42 c-2 -13 -4 -5 -4 17 -1
22 1 32 4 23 2 -10 2 -28 0 -40z m-109 17 c-3 -3 -9 2 -12 12 -6 14 -5 15 5 6
7 -7 10 -15 7 -18z m-944 -28 c4 4 4 0 1 -8 -4 -11 1 -18 16 -22 14 -4 20 -11
16 -20 -6 -16 25 -51 36 -40 4 3 7 0 7 -9 0 -22 -11 -29 -24 -15 -21 21 -52
72 -38 64 6 -5 12 -4 12 2 0 6 -6 11 -14 11 -7 0 -22 12 -32 28 -13 19 -13 24
-2 15 8 -7 18 -10 22 -6z m102 -143 c-3 -8 -1 -14 4 -14 6 0 10 5 10 11 0 6 7
3 16 -5 8 -9 12 -21 8 -28 -6 -10 -5 -11 8 -1 12 11 18 9 34 -9 14 -16 14 -19
2 -10 -13 11 -17 11 -20 -1 -2 -11 -15 -4 -47 23 -25 22 -41 43 -37 49 10 15
29 2 22 -15z m1160 -50 c-8 -8 -20 -14 -26 -14 -7 0 -20 -10 -31 -22 -14 -18
-18 -19 -19 -7 0 9 16 24 35 35 19 10 35 22 35 27 0 4 5 5 10 2 6 -4 5 -12 -4
-21z m-1030 -37 c5 -1 8 -5 7 -9 -1 -3 4 -9 13 -12 8 -3 12 -2 9 4 -3 6 -3 10
2 10 12 0 35 -16 36 -26 1 -5 8 -8 15 -6 8 2 11 -1 7 -8 -4 -7 -1 -10 6 -9 21
3 69 -19 69 -31 0 -6 4 -9 9 -5 15 9 61 -17 60 -34 0 -10 -3 -11 -5 -4 -3 7
-12 9 -20 6 -7 -3 -17 2 -20 11 -3 9 -10 14 -14 11 -4 -3 -27 6 -52 19 -54 28
-73 38 -120 61 -24 12 -35 22 -31 32 4 11 8 11 13 3 4 -6 11 -12 16 -13z m231
-39 c-2 -13 -4 -3 -4 22 0 25 2 35 4 23 2 -13 2 -33 0 -45z m697 5 c-14 -10
-19 -10 -26 0 -4 6 -8 9 -8 5 0 -17 -5 -24 -28 -35 -13 -7 -29 -10 -35 -6 -5
3 8 15 29 26 21 11 40 19 42 18 1 -1 10 6 19 15 13 13 18 14 21 4 3 -7 -3 -19
-14 -27z m-104 -53 c0 -5 -5 -10 -11 -10 -5 0 -7 5 -4 10 3 6 8 10 11 10 2 0
4 -4 4 -10z m-547 -53 c4 3 7 -1 7 -10 0 -9 5 -17 11 -17 5 0 7 5 3 12 -5 7
-3 8 5 3 8 -5 9 -11 3 -17 -13 -13 -62 19 -62 41 1 14 2 14 14 -1 7 -10 16
-15 19 -11z m75 -45 c-2 -20 3 -25 12 -12 8 13 10 13 10 -2 0 -10 5 -15 13
-12 20 7 38 -18 25 -36 -8 -12 -9 -11 -4 4 5 13 2 17 -9 13 -8 -4 -27 5 -43
18 -16 14 -32 22 -36 18 -3 -3 -6 -2 -6 4 0 5 3 12 6 16 7 7 34 -2 32 -11z
m207 -46 c-11 -8 -23 -12 -27 -10 -5 3 -8 -2 -8 -11 0 -9 -4 -13 -10 -10 -5 3
-10 0 -10 -8 0 -29 -55 -30 -60 -2 -1 6 -6 9 -11 8 -4 -2 -6 4 -2 13 5 13 9
12 27 -5 25 -23 37 -27 34 -10 -2 6 13 19 32 30 40 22 63 25 35 5z m-344 -42
c9 -12 23 -14 53 -10 64 9 77 -8 22 -29 -46 -18 -48 -18 -74 2 -27 20 -42 53
-24 53 5 0 15 -7 23 -16z m540 -22 c-16 -31 -48 -36 -93 -16 -30 13 -36 19
-24 26 8 5 33 4 56 -1 23 -5 39 -7 36 -4 -3 4 -1 12 6 20 17 21 32 0 19 -25z"/>
<path d="M1528 3403 c29 -2 74 -2 100 0 26 2 2 3 -53 3 -55 0 -76 -1 -47 -3z"/>
<path d="M1758 3403 c17 -2 47 -2 65 0 17 2 3 4 -33 4 -36 0 -50 -2 -32 -4z"/>
<path d="M1418 3393 c12 -2 30 -2 40 0 9 3 -1 5 -23 4 -22 0 -30 -2 -17 -4z"/>
<path d="M1888 3393 c12 -2 30 -2 40 0 9 3 -1 5 -23 4 -22 0 -30 -2 -17 -4z"/>
<path d="M1348 3383 c6 -2 18 -2 25 0 6 3 1 5 -13 5 -14 0 -19 -2 -12 -5z"/>
<path d="M1973 3383 c9 -2 23 -2 30 0 6 3 -1 5 -18 5 -16 0 -22 -2 -12 -5z"/>
<path d="M1288 3373 c6 -2 18 -2 25 0 6 3 1 5 -13 5 -14 0 -19 -2 -12 -5z"/>
<path d="M2028 3373 c6 -2 18 -2 25 0 6 3 1 5 -13 5 -14 0 -19 -2 -12 -5z"/>
<path d="M1248 3363 c7 -3 16 -2 19 1 4 3 -2 6 -13 5 -11 0 -14 -3 -6 -6z"/>
<path d="M2078 3363 c7 -3 16 -2 19 1 4 3 -2 6 -13 5 -11 0 -14 -3 -6 -6z"/>
<path d="M1175 3350 c-13 -5 -14 -9 -5 -9 8 0 24 4 35 9 13 5 14 9 5 9 -8 0
-24 -4 -35 -9z"/>
<path d="M1525 3280 l0 -80 35 0 c26 0 31 3 22 12 -7 7 -12 25 -12 41 0 24 3
27 20 22 16 -5 20 -2 20 16 0 18 -3 19 -15 9 -19 -16 -35 -4 -35 26 0 19 5 24
24 24 14 0 28 -4 31 -10 9 -15 25 -12 25 5 0 12 -13 15 -57 15 l-58 0 0 -80z"/>
<path d="M1665 3280 c0 -79 0 -80 25 -80 25 0 25 1 25 80 0 79 0 80 -25 80
-25 0 -25 -1 -25 -80z"/>
<path d="M1756 3338 c-35 -50 -16 -123 37 -141 24 -9 67 9 67 28 0 14 -2 14
-23 0 -19 -12 -26 -13 -41 -2 -22 16 -26 78 -7 101 17 20 50 21 57 1 8 -19 24
-9 24 14 0 14 -10 18 -49 20 -41 2 -52 -2 -65 -21z"/>
<path d="M2135 3350 c11 -5 27 -9 35 -9 9 0 8 4 -5 9 -11 5 -27 9 -35 9 -9 0
-8 -4 5 -9z"/>
<path d="M1429 3336 c6 -7 12 -43 14 -79 2 -65 3 -67 29 -67 25 0 27 2 19 23
-12 32 -17 110 -7 125 5 9 -3 12 -30 12 -30 0 -34 -3 -25 -14z"/>
<path d="M1298 3328 c-28 -7 -38 -15 -38 -31 0 -19 1 -19 18 -4 10 10 23 17
29 17 12 0 29 -122 19 -138 -3 -5 5 -7 19 -4 14 2 27 7 30 11 3 6 -3 41 -21
120 -5 21 -2 23 26 19 20 -3 30 0 30 9 0 15 -56 16 -112 1z"/>
<path d="M1920 3270 c-19 -38 -39 -70 -44 -71 -6 0 -2 -4 9 -9 29 -13 38 -12
32 3 -8 22 7 37 31 30 24 -6 28 -23 10 -41 -9 -9 -4 -12 24 -12 l36 0 -8 38
c-5 20 -10 55 -11 77 -3 39 -13 55 -35 55 -5 0 -25 -31 -44 -70z m50 -12 c0
-10 -6 -18 -13 -18 -22 0 -26 11 -15 36 12 26 28 16 28 -18z"/>
<path d="M2205 3330 c11 -5 27 -9 35 -9 9 0 8 4 -5 9 -11 5 -27 9 -35 9 -9 0
-8 -4 5 -9z"/>
<path d="M2040 3308 c0 -11 7 -14 25 -10 14 2 25 0 25 -6 0 -26 -23 -118 -32
-129 -8 -9 -6 -13 5 -13 8 0 22 -2 30 -5 11 -5 15 9 20 61 8 80 18 95 47 69
18 -16 20 -17 20 -1 0 19 -34 34 -97 43 -34 5 -43 3 -43 -9z"/>
<path d="M2280 3309 c14 -7 71 -34 128 -60 56 -26 102 -46 102 -43 0 7 -199
101 -230 108 l-25 6 25 -11z"/>
<path d="M1005 3291 c-22 -11 -35 -19 -30 -19 14 -1 93 36 80 37 -5 0 -28 -8
-50 -18z"/>
<path d="M1165 3293 c-11 -3 -30 -9 -41 -14 l-22 -8 19 -66 c10 -36 15 -72 12
-80 -6 -18 -3 -18 31 -5 24 9 24 11 11 37 -19 36 -3 54 25 28 11 -10 20 -25
20 -33 0 -10 7 -13 23 -8 12 3 29 6 37 6 8 0 -2 14 -23 31 -35 29 -37 33 -23
48 20 22 20 36 0 55 -15 16 -32 18 -69 9z m35 -44 c0 -19 -33 -43 -44 -32 -11
11 -6 51 7 56 20 7 37 -4 37 -24z"/>
<path d="M2204 3271 c8 -12 -19 -107 -37 -129 -12 -15 -14 -14 50 -39 44 -18
52 -19 57 -6 9 21 8 23 -11 21 -48 -4 -55 1 -48 29 9 37 12 39 34 26 16 -10
20 -9 24 8 4 14 1 19 -7 16 -21 -8 -36 7 -29 31 4 17 10 21 27 16 11 -3 26
-12 32 -20 10 -13 12 -12 18 1 4 12 -4 20 -27 30 -54 22 -91 30 -83 16z"/>
<path d="M1020 3242 c-19 -8 -45 -18 -58 -23 -20 -8 -21 -11 -9 -23 7 -8 22
-40 32 -73 10 -32 19 -59 20 -61 1 -1 23 7 48 18 35 16 47 26 47 42 l0 22 -20
-22 c-26 -27 -47 -28 -55 -2 -8 25 3 43 21 36 9 -3 14 2 14 14 0 22 -10 26
-27 9 -15 -15 -33 -3 -33 21 0 21 40 37 59 25 6 -3 11 1 11 9 0 23 -12 25 -50
8z"/>
<path d="M864 3171 c-44 -20 -54 -35 -54 -83 0 -34 47 -88 77 -88 20 0 83 36
83 47 0 5 -4 14 -9 21 -6 10 -12 7 -25 -12 -21 -33 -39 -33 -65 0 -38 49 -19
114 29 99 21 -7 25 1 12 22 -6 9 -18 7 -48 -6z"/>
<path d="M2384 3178 c-46 -22 -57 -92 -21 -126 29 -27 47 -28 81 -1 35 28 38
100 4 123 -26 18 -35 19 -64 4z m57 -30 c3 -27 -4 -53 -18 -75 -33 -51 -64
-10 -39 51 10 25 21 36 35 36 12 0 22 -6 22 -12z"/>
<path d="M1607 3153 c18 -2 50 -2 70 0 21 2 7 4 -32 4 -38 0 -55 -2 -38 -4z"/>
<path d="M1370 3130 c-166 -32 -273 -69 -423 -147 -86 -45 -187 -128 -187
-155 0 -7 10 2 21 19 48 75 282 195 480 248 52 13 141 31 199 39 74 9 90 14
55 14 -27 0 -93 -8 -145 -18z"/>
<path d="M1810 3140 c36 -4 92 -10 125 -13 56 -6 55 -5 -15 8 -41 8 -97 13
-125 13 -48 -1 -47 -1 15 -8z"/>
<path d="M2490 3089 c-8 -23 -22 -51 -32 -64 -17 -21 -16 -22 5 -32 20 -9 23
-8 24 10 3 29 19 43 36 29 8 -7 17 -9 20 -5 12 12 7 21 -15 27 -22 5 -22 6 -5
23 17 17 19 17 36 -6 15 -19 19 -21 24 -8 4 10 -7 24 -33 41 -22 14 -41 26
-43 26 -2 0 -10 -19 -17 -41z"/>
<path d="M2020 3110 c14 -4 34 -8 45 -8 16 0 15 2 -5 8 -14 4 -34 8 -45 8 -16
0 -15 -2 5 -8z"/>
<path d="M688 3079 c-16 -11 -28 -26 -28 -32 0 -8 3 -8 11 0 6 6 17 9 24 7 7
-3 16 -1 20 5 4 7 -1 9 -12 5 -12 -4 -10 0 7 15 32 27 13 27 -22 0z"/>
<path d="M2105 3090 c11 -5 27 -9 35 -9 9 0 8 4 -5 9 -11 5 -27 9 -35 9 -9 0
-8 -4 5 -9z"/>
<path d="M2240 3045 c88 -36 108 -42 76 -23 -27 15 -138 58 -150 58 -6 -1 27
-16 74 -35z"/>
<path d="M2341 3006 c2 -2 15 -9 29 -15 24 -11 24 -11 6 3 -16 13 -49 24 -35
12z"/>
<path d="M2610 2992 c6 -13 14 -21 18 -18 3 4 -2 14 -12 24 -18 16 -18 16 -6
-6z"/>
<path d="M2600 2968 c14 -16 13 -31 -2 -22 -7 5 -8 3 -3 -5 5 -9 10 -10 18 -2
8 8 6 15 -6 26 -9 8 -12 10 -7 3z"/>
<path d="M2565 2930 c10 -11 23 -20 28 -20 6 0 2 9 -8 20 -10 11 -23 20 -28
20 -6 0 -2 -9 8 -20z"/>
<path d="M771 2894 c-12 -15 -21 -31 -21 -37 0 -12 -1 -13 29 31 27 38 21 43
-8 6z"/>
<path d="M652 2730 c0 -14 2 -19 5 -12 2 6 2 18 0 25 -3 6 -5 1 -5 -13z"/>
<path d="M698 2673 c7 -3 16 -2 19 1 4 3 -2 6 -13 5 -11 0 -14 -3 -6 -6z"/>
<path d="M2813 2923 c9 -2 23 -2 30 0 6 3 -1 5 -18 5 -16 0 -22 -2 -12 -5z"/>
<path d="M2408 2893 c7 -3 16 -2 19 1 4 3 -2 6 -13 5 -11 0 -14 -3 -6 -6z"/>
<path d="M1628 2853 c12 -2 30 -2 40 0 9 3 -1 5 -23 4 -22 0 -30 -2 -17 -4z"/>
<path d="M1698 2843 c6 -2 18 -2 25 0 6 3 1 5 -13 5 -14 0 -19 -2 -12 -5z"/>
<path d="M1548 2813 c6 -2 18 -2 25 0 6 3 1 5 -13 5 -14 0 -19 -2 -12 -5z"/>
<path d="M1641 2734 c0 -11 3 -14 6 -6 3 7 2 16 -1 19 -3 4 -6 -2 -5 -13z"/>
<path d="M1596 2711 c-7 -11 17 -21 47 -21 21 1 21 1 -3 15 -30 17 -37 18 -44
6z"/>
<path d="M1618 2673 c6 -2 18 -2 25 0 6 3 1 5 -13 5 -14 0 -19 -2 -12 -5z"/>
<path d="M1851 2654 c-1 -11 9 -29 21 -40 13 -11 17 -12 11 -3 -7 8 -17 26
-22 40 -9 22 -10 22 -10 3z"/>
<path d="M1910 2596 c0 -2 7 -7 16 -10 8 -3 12 -2 9 4 -6 10 -25 14 -25 6z"/>
<path d="M510 2580 c0 -5 5 -10 11 -10 5 0 7 5 4 10 -3 6 -8 10 -11 10 -2 0
-4 -4 -4 -10z"/>
<path d="M584 2515 c36 -19 42 -19 26 0 -7 8 -22 15 -34 15 -18 0 -17 -2 8
-15z"/>
<path d="M405 2499 c-4 -6 -5 -12 -2 -15 2 -3 7 2 10 11 7 17 1 20 -8 4z"/>
<path d="M677 2442 c-3 -4 4 -18 16 -32 16 -20 19 -21 12 -5 -4 11 -8 26 -8
33 0 13 -13 16 -20 4z"/>
<path d="M657 2163 c-4 -3 -7 -11 -7 -17 0 -6 5 -5 12 2 6 6 9 14 7 17 -3 3
-9 2 -12 -2z"/>
<path d="M736 1984 c-10 -14 -15 -28 -13 -31 3 -2 13 7 23 21 9 15 14 29 12
32 -3 2 -13 -7 -22 -22z"/>
<path d="M279 1973 c-13 -17 -13 -17 6 -3 11 8 22 16 24 17 2 2 0 3 -6 3 -6 0
-17 -8 -24 -17z"/>
<path d="M345 1840 c-3 -5 -1 -10 4 -10 6 0 11 5 11 10 0 6 -2 10 -4 10 -3 0
-8 -4 -11 -10z"/>
<path d="M200 1816 c0 -8 4 -17 9 -20 5 -4 7 3 4 14 -6 23 -13 26 -13 6z"/>
<path d="M359 1763 c3 -38 6 -43 11 -23 7 27 2 70 -9 70 -3 0 -4 -21 -2 -47z"/>
<path d="M281 1639 c-35 -28 -22 -32 14 -3 17 13 26 24 20 24 -5 -1 -21 -10
-34 -21z"/>
<path d="M230 1580 c0 -5 5 -10 10 -10 6 0 10 5 10 10 0 6 -4 10 -10 10 -5 0
-10 -4 -10 -10z"/>
<path d="M315 1380 c3 -5 11 -10 16 -10 6 0 7 5 4 10 -3 6 -11 10 -16 10 -6 0
-7 -4 -4 -10z"/>
<path d="M2891 2518 c6 -12 15 -33 20 -47 5 -17 8 -20 8 -8 1 18 -25 77 -35
77 -2 0 1 -10 7 -22z"/>
<path d="M2729 2513 c-13 -15 -12 -15 11 -3 34 17 36 20 18 20 -9 0 -22 -7
-29 -17z"/>
<path d="M2923 2506 c4 -10 7 -21 7 -25 0 -4 6 -8 14 -8 18 0 6 39 -14 45 -9
3 -11 -1 -7 -12z"/>
<path d="M2646 2424 c-23 -23 -20 -30 4 -9 11 10 20 20 20 22 0 7 -9 2 -24
-13z"/>
<path d="M2755 2324 c-27 -26 -36 -37 -20 -26 28 19 84 72 74 72 -2 -1 -26
-21 -54 -46z"/>
<path d="M2724 2268 l-19 -23 23 19 c21 18 27 26 19 26 -2 0 -12 -10 -23 -22z"/>
<path d="M2876 2119 c3 -5 9 -7 14 -4 4 3 11 0 13 -5 3 -6 4 -5 3 1 -1 7 -10
13 -19 15 -9 1 -15 -2 -11 -7z"/>
<path d="M2730 2020 c0 -5 -8 -11 -17 -13 -12 -3 -9 -5 8 -6 32 -1 59 24 28
26 -10 1 -19 -2 -19 -7z"/>
<path d="M3089 1935 c17 -20 33 -46 37 -60 6 -25 -12 -95 -25 -95 -4 0 -8 -6
-8 -13 0 -8 6 -14 12 -14 7 0 12 5 11 11 0 6 6 30 13 53 17 51 10 81 -29 121
-41 43 -50 41 -11 -3z"/>
<path d="M2810 1930 c0 -5 12 -10 28 -9 24 0 25 1 7 9 -27 12 -35 12 -35 0z"/>
<path d="M2785 1920 c-3 -5 -1 -10 4 -10 6 0 11 5 11 10 0 6 -2 10 -4 10 -3 0
-8 -4 -11 -10z"/>
<path d="M1758 2428 c-32 -33 -62 -56 -68 -53 -5 3 -10 1 -10 -4 0 -26 -61
-10 -102 26 l-43 37 35 -38 c47 -51 73 -60 112 -40 35 18 115 90 129 116 13
25 11 23 -53 -44z"/>
<path d="M1520 2394 c0 -14 4 -23 9 -20 5 3 7 15 4 26 -7 28 -13 25 -13 -6z"/>
<path d="M1822 2380 c0 -19 2 -27 5 -17 2 9 2 25 0 35 -3 9 -5 1 -5 -18z"/>
<path d="M1540 2366 c0 -9 53 -97 56 -93 5 4 -45 97 -52 97 -2 0 -4 -2 -4 -4z"/>
<path d="M1599 2331 c13 -12 28 -21 34 -21 12 0 11 0 -28 24 l-30 17 24 -20z"/>
<path d="M1837 2257 c-4 -32 -14 -75 -22 -95 -9 -20 -12 -39 -7 -44 11 -11 46
148 40 177 -2 11 -7 -6 -11 -38z"/>
<path d="M1550 2293 c0 -6 7 -28 16 -49 27 -65 72 -102 89 -74 4 6 -4 9 -17 7
-19 -2 -28 9 -55 62 -18 35 -33 59 -33 54z"/>
<path d="M1664 2269 c-10 -12 -28 -25 -39 -30 -14 -5 -15 -8 -4 -8 8 -1 28 13
44 29 16 17 26 30 23 30 -3 0 -13 -10 -24 -21z"/>
<path d="M1451 2185 c0 -11 4 -27 9 -35 9 -13 10 -13 9 0 0 8 -4 24 -9 35 l-9
20 0 -20z"/>
<path d="M1672 2162 c-17 -18 -30 -22 -48 -18 -17 5 -23 3 -19 -4 11 -18 51
-11 75 15 13 14 22 26 19 28 -2 2 -14 -8 -27 -21z"/>
<path d="M1775 2140 c-9 -16 -12 -30 -9 -30 4 0 -3 -11 -16 -25 -13 -14 -18
-25 -12 -25 6 0 14 5 17 10 4 6 11 7 17 4 6 -4 8 -2 5 3 -4 6 0 14 9 17 13 5
14 9 4 20 -8 11 -9 20 0 35 6 12 8 21 6 21 -3 0 -12 -13 -21 -30z"/>
<path d="M1570 2157 c0 -18 22 -47 43 -57 19 -9 20 -9 7 2 -9 7 -24 24 -33 38
-9 13 -17 21 -17 17z"/>
<path d="M1550 2113 c0 -6 9 -21 21 -34 l20 -24 -17 30 c-24 39 -24 40 -24 28z"/>
<path d="M1980 2456 c0 -2 8 -10 18 -17 15 -13 16 -12 3 4 -13 16 -21 21 -21
13z"/>
<path d="M1340 2321 c0 -6 4 -13 10 -16 6 -3 7 1 4 9 -7 18 -14 21 -14 7z"/>
<path d="M1361 2253 c7 -12 15 -20 18 -17 3 2 -3 12 -13 22 -17 16 -18 16 -5
-5z"/>
<path d="M1258 2253 c7 -3 16 -2 19 1 4 3 -2 6 -13 5 -11 0 -14 -3 -6 -6z"/>
<path d="M1015 2420 c-3 -6 1 -7 9 -4 18 7 21 14 7 14 -6 0 -13 -4 -16 -10z"/>
<path d="M826 2117 c-14 -10 -16 -16 -7 -22 15 -9 35 8 30 24 -3 8 -10 7 -23
-2z"/>
<path d="M2192 1870 c0 -14 2 -19 5 -12 2 6 2 18 0 25 -3 6 -5 1 -5 -13z"/>
<path d="M2201 1829 c-2 -24 20 -133 28 -142 4 -4 2 21 -5 55 -18 93 -22 105
-23 87z"/>
<path d="M2282 1570 c0 -14 2 -19 5 -12 2 6 2 18 0 25 -3 6 -5 1 -5 -13z"/>
<path d="M330 2080 c-8 -5 -10 -10 -5 -10 6 0 17 5 25 10 8 5 11 10 5 10 -5 0
-17 -5 -25 -10z"/>
<path d="M2998 2073 c7 -3 16 -2 19 1 4 3 -2 6 -13 5 -11 0 -14 -3 -6 -6z"/>
<path d="M1463 1465 c0 -27 2 -38 4 -22 2 15 2 37 0 50 -2 12 -4 0 -4 -28z"/>
<path d="M1680 1876 c0 -22 -19 -29 -38 -14 -15 12 -16 11 -3 -4 18 -24 4 -23
-39 3 l-35 21 24 -26 c14 -14 34 -26 46 -26 26 0 72 45 56 55 -6 3 -11 -1 -11
-9z"/>
<path d="M1521 1849 c-1 -38 38 -161 49 -154 5 3 11 1 15 -5 3 -5 11 -10 17
-10 7 0 -1 13 -17 30 -19 19 -35 53 -46 97 -10 38 -18 56 -18 42z"/>
<path d="M1507 1800 c7 -82 37 -203 47 -193 5 5 5 -2 2 -14 -9 -27 27 -113 46
-113 10 0 10 2 1 8 -13 8 -43 74 -43 94 0 7 7 2 16 -10 8 -12 25 -21 37 -21
l22 2 -22 4 c-31 6 -60 71 -88 200 -21 96 -23 101 -18 43z"/>
<path d="M1751 1794 c0 -11 3 -14 6 -6 3 7 2 16 -1 19 -3 4 -6 -2 -5 -13z"/>
<path d="M1850 1706 c0 -46 -4 -76 -11 -78 -7 -2 -5 -9 5 -17 14 -12 16 -5 16
78 0 50 -2 91 -5 91 -3 0 -5 -33 -5 -74z"/>
<path d="M1707 1653 c-19 -60 -38 -117 -42 -128 -6 -16 -5 -17 4 -5 14 20 84
230 79 236 -3 2 -21 -44 -41 -103z"/>
<path d="M1605 1710 c3 -5 11 -10 16 -10 6 0 7 5 4 10 -3 6 -11 10 -16 10 -6
0 -7 -4 -4 -10z"/>
<path d="M1600 1650 c-9 -6 -10 -10 -3 -10 6 0 15 5 18 10 8 12 4 12 -15 0z"/>
<path d="M1522 1615 c0 -16 2 -22 5 -12 2 9 2 23 0 30 -3 6 -5 -1 -5 -18z"/>
<path d="M1597 1587 c2 -4 15 -6 28 -4 38 5 38 13 0 12 -18 0 -31 -3 -28 -8z"/>
<path d="M1845 1570 c20 -23 29 -21 19 4 -3 9 -13 16 -22 16 -13 0 -12 -3 3
-20z"/>
<path d="M1532 1560 c0 -14 2 -19 5 -12 2 6 2 18 0 25 -3 6 -5 1 -5 -13z"/>
<path d="M1546 1495 c8 -64 52 -252 53 -230 1 11 4 31 7 45 4 20 3 22 -5 10
-9 -12 -11 -11 -11 10 -1 14 -12 66 -25 115 -14 50 -22 72 -19 50z"/>
<path d="M1645 1480 c-4 -12 -5 -24 -2 -27 3 -2 8 5 12 17 4 12 5 24 2 27 -3
2 -8 -5 -12 -17z"/>
<path d="M1831 1400 c0 -8 4 -24 9 -35 5 -13 9 -14 9 -5 0 8 -4 24 -9 35 -5
13 -9 14 -9 5z"/>
<path d="M1551 1374 c0 -11 3 -14 6 -6 3 7 2 16 -1 19 -3 4 -6 -2 -5 -13z"/>
<path d="M1612 1360 c0 -8 4 -26 8 -40 6 -20 8 -21 8 -5 0 11 -3 29 -8 40 -5
12 -8 14 -8 5z"/>
<path d="M1810 1340 c6 -11 13 -20 16 -20 2 0 0 9 -6 20 -6 11 -13 20 -16 20
-2 0 0 -9 6 -20z"/>
<path d="M1632 1250 c0 -19 2 -27 5 -17 2 9 2 25 0 35 -3 9 -5 1 -5 -18z"/>
<path d="M1649 1112 c5 -34 6 -35 9 -8 2 16 0 32 -5 37 -5 5 -7 -7 -4 -29z"/>
<path d="M1775 1086 c10 -14 19 -26 22 -26 7 0 -17 39 -28 46 -6 3 -3 -5 6
-20z"/>
<path d="M1801 1034 c0 -11 3 -14 6 -6 3 7 2 16 -1 19 -3 4 -6 -2 -5 -13z"/>
<path d="M89 1911 c-24 -24 -29 -37 -28 -73 2 -32 3 -36 6 -13 6 50 24 85 52
100 14 8 20 14 13 15 -8 0 -27 -13 -43 -29z"/>
<path d="M3234 1918 c14 -13 32 -41 40 -63 13 -36 15 -37 15 -13 1 27 -50 98
-71 98 -5 0 2 -10 16 -22z"/>
<path d="M3210 1905 c7 -9 15 -13 17 -11 7 7 -7 26 -19 26 -6 0 -6 -6 2 -15z"/>
<path d="M3238 1850 c3 -19 -4 -43 -17 -66 -28 -47 -20 -56 8 -11 21 34 28 91
13 101 -5 3 -6 -8 -4 -24z"/>
<path d="M1912 1735 c0 -16 2 -22 5 -12 2 9 2 23 0 30 -3 6 -5 -1 -5 -18z"/>
<path d="M1923 1635 c-3 -9 -3 -18 -1 -21 3 -3 8 4 11 16 6 23 -1 27 -10 5z"/>
<path d="M448 1754 c13 -9 27 -25 31 -37 5 -13 10 -17 15 -9 8 13 -36 62 -56
62 -7 0 -2 -7 10 -16z"/>
<path d="M472 1667 c-12 -13 -22 -27 -22 -31 0 -4 11 5 25 20 14 15 25 29 25
30 0 8 -7 3 -28 -19z"/>
<path d="M420 1615 c0 -2 10 -10 23 -16 20 -11 21 -11 8 4 -13 16 -31 23 -31
12z"/>
<path d="M2895 1608 l-20 -21 23 12 c12 6 22 16 22 21 0 13 -2 12 -25 -12z"/>
<path d="M100 1530 c-13 -8 -13 -10 2 -10 9 0 20 5 23 10 8 13 -5 13 -25 0z"/>
<path d="M1401 1534 c0 -11 3 -14 6 -6 3 7 2 16 -1 19 -3 4 -6 -2 -5 -13z"/>
<path d="M2020 1230 c-6 -11 -8 -20 -6 -20 3 0 10 9 16 20 6 11 8 20 6 20 -3
0 -10 -9 -16 -20z"/>
<path d="M1921 1068 c-44 -73 -90 -149 -102 -168 -11 -19 -13 -26 -4 -15 16
20 161 250 184 293 6 12 10 22 7 22 -3 0 -41 -60 -85 -132z"/>
<path d="M1438 823 c6 -2 18 -2 25 0 6 3 1 5 -13 5 -14 0 -19 -2 -12 -5z"/>
<path d="M1867 829 c7 -7 15 -10 18 -7 3 3 -2 9 -12 12 -14 6 -15 5 -6 -5z"/>
<path d="M2593 1660 c-47 -28 -66 -72 -61 -139 2 -31 13 -73 23 -94 l18 -39
-32 -25 c-18 -14 -63 -71 -100 -127 -38 -55 -80 -108 -95 -116 l-28 -14 21
-17 21 -17 -31 -26 c-35 -29 -54 -32 -75 -12 -20 20 -50 9 -64 -25 -7 -16 -19
-29 -27 -29 -17 0 -112 -47 -135 -68 -10 -8 -18 -26 -18 -39 0 -18 5 -23 24
-23 14 0 28 5 32 11 3 6 15 8 27 5 13 -3 31 4 49 20 16 13 42 27 56 30 79 17
198 79 231 118 7 9 18 13 23 10 5 -3 17 1 26 9 15 14 19 14 39 -3 l23 -18 -48
-11 c-26 -7 -76 -27 -112 -46 -485 -258 -628 -296 -895 -238 -119 26 -210 67
-510 228 -44 24 -107 50 -140 60 -107 29 -99 25 -78 40 10 7 21 11 24 9 4 -2
13 4 20 14 13 15 12 16 -3 3 -11 -8 -18 -9 -18 -3 0 6 4 14 10 17 20 13 31 82
19 133 -8 41 -17 55 -49 77 -65 45 -109 50 -205 23 -65 -19 -61 -26 12 -21 55
4 75 1 103 -15 20 -11 34 -26 32 -35 -1 -9 3 -19 9 -23 8 -5 9 -3 4 6 -5 8 -4
11 2 7 13 -8 9 -79 -6 -103 -10 -16 -12 -13 -8 22 4 36 1 44 -27 66 -46 36
-50 38 -124 52 -59 11 -73 11 -93 -1 -17 -10 -18 -12 -4 -7 24 8 27 8 83 -4
45 -10 87 -42 97 -73 12 -36 -5 -37 -39 -3 -29 29 -41 34 -80 34 -62 0 -114
-23 -126 -55 -9 -24 -11 -25 -32 -11 -16 10 -46 14 -95 13 -63 -2 -74 1 -97
22 -51 48 -42 121 14 121 17 0 30 -4 30 -10 0 -5 -7 -10 -15 -10 -22 0 -18
-44 6 -66 65 -59 252 24 288 127 8 24 7 31 -9 39 -13 7 -20 6 -23 -3 -2 -6 -8
-9 -12 -5 -16 15 18 39 49 36 26 -2 32 -8 34 -32 2 -19 -4 -37 -20 -54 -13
-15 -4 -10 20 11 39 35 46 37 107 37 79 0 127 -18 178 -68 56 -54 45 -62 -13
-8 -68 63 -70 58 -3 -10 33 -34 52 -62 49 -71 -3 -8 -2 -12 2 -9 10 6 46 -60
51 -92 0 -5 10 -18 21 -30 11 -12 20 -25 20 -29 0 -5 6 -8 13 -8 6 -1 11 -6 9
-13 -1 -7 1 -11 6 -10 12 4 62 -39 54 -46 -3 -4 1 -4 11 -1 9 4 30 2 46 -3 27
-9 29 -9 26 9 -3 13 0 19 8 16 7 -3 11 -10 9 -16 -1 -7 2 -10 8 -6 5 3 10 -1
10 -9 0 -20 -31 -36 -67 -35 l-28 1 30 7 30 7 -37 5 c-20 3 -34 1 -32 -3 11
-18 -14 -6 -61 30 -33 24 -60 56 -79 92 l-28 55 6 -48 c4 -31 2 -46 -4 -42 -6
3 -10 25 -11 48 l0 42 -15 -39 c-8 -22 -22 -48 -31 -58 -9 -10 -11 -18 -6 -18
6 0 16 7 23 15 10 12 15 12 34 0 13 -8 26 -12 29 -8 4 3 20 -5 35 -19 50 -46
90 -68 169 -94 43 -14 90 -37 105 -51 16 -16 33 -23 43 -19 9 3 24 1 34 -6 24
-15 51 -4 51 21 0 26 -46 63 -106 85 -28 11 -62 33 -79 53 -21 24 -35 32 -47
28 -10 -4 -18 -11 -18 -16 0 -18 -39 -8 -69 17 l-31 26 22 17 21 18 -32 19
c-30 17 -61 58 -119 156 -13 20 -40 52 -62 72 -39 35 -39 35 -25 70 19 46 19
59 -3 87 -13 15 -25 20 -37 15 -16 -6 -17 -8 -1 -24 18 -21 21 -54 6 -82 -9
-16 -15 -18 -36 -10 -32 13 -105 13 -137 1 -21 -8 -26 -6 -35 14 -15 32 -55
42 -87 21 -30 -20 -33 -56 -5 -63 27 -7 25 -16 -12 -59 -66 -74 -199 -110
-232 -62 -15 21 -15 23 4 30 24 9 25 21 4 42 -37 37 -94 6 -94 -52 0 -74 44
-114 124 -114 42 1 47 -1 31 -10 -59 -32 -74 -107 -29 -152 30 -29 65 -34 88
-10 22 21 20 45 -4 51 -26 7 -21 27 8 31 20 3 62 -29 62 -47 0 -5 -8 -12 -18
-15 -11 -4 -25 -17 -32 -30 -17 -33 4 -122 32 -137 48 -26 98 23 62 62 -20 22
-11 24 50 8 41 -10 44 -13 54 -60 13 -53 7 -102 -14 -120 -19 -16 -32 -3 -27
25 7 33 -33 54 -66 37 -51 -28 -34 -103 29 -129 27 -12 40 -23 40 -37 1 -95
176 -170 266 -114 l34 21 28 -21 c16 -11 35 -27 42 -36 11 -13 7 -15 -32 -15
-59 0 -68 -11 -61 -74 7 -65 25 -86 74 -86 41 0 54 16 32 41 -12 14 -11 18 1
28 17 14 96 28 96 17 0 -4 -10 -20 -22 -37 -21 -28 -21 -32 -7 -57 12 -21 22
-27 49 -27 32 0 35 3 35 27 -1 24 3 28 27 28 15 0 51 -11 81 -23 29 -13 69
-27 90 -31 31 -6 37 -11 37 -31 0 -30 32 -65 60 -65 19 0 47 36 42 54 -5 16
21 26 68 26 60 0 81 -13 49 -30 -44 -23 -53 -65 -21 -93 25 -23 48 -21 65 4
18 25 33 8 16 -19 -16 -25 -5 -52 21 -52 20 0 70 -44 70 -61 0 -19 42 -8 47
11 3 11 12 20 19 20 8 0 14 5 14 11 0 5 14 15 30 20 31 11 39 36 19 56 -6 6
-8 16 -4 23 5 8 12 5 22 -9 29 -43 87 -13 81 42 -2 17 -11 35 -23 41 -11 6
-22 12 -25 14 -12 8 30 22 67 22 48 0 80 -10 64 -19 -21 -13 11 -61 40 -61 29
0 69 37 69 66 0 15 18 25 83 47 45 16 96 31 113 34 29 5 31 3 27 -20 -4 -19 1
-28 17 -37 19 -10 27 -9 49 7 32 24 38 55 17 85 -30 42 -13 49 51 23 30 -13
33 -17 23 -30 -20 -24 -4 -45 33 -45 47 0 70 28 73 90 2 59 -10 73 -67 72
l-41 -1 23 26 c40 42 54 45 91 23 63 -38 166 -20 230 41 28 27 38 44 38 67 0
26 4 32 21 32 24 0 79 51 79 74 0 26 -22 65 -41 71 -10 4 -28 1 -40 -5 -17 -9
-20 -18 -15 -41 4 -21 2 -29 -8 -29 -35 0 -49 60 -33 141 6 31 13 38 46 47 52
16 79 16 63 0 -31 -31 -2 -85 41 -74 26 6 44 38 53 96 5 33 3 42 -20 65 -14
14 -26 30 -26 34 0 17 39 42 61 39 29 -4 38 -28 10 -28 -15 0 -21 -6 -21 -23
0 -50 55 -63 95 -22 42 41 28 121 -26 151 -22 12 -20 13 32 14 67 0 102 22
119 75 20 62 -23 118 -77 99 -35 -12 -43 -43 -14 -51 48 -12 6 -53 -55 -53
-57 0 -111 27 -172 87 -47 46 -47 46 -22 53 14 3 26 14 28 24 5 24 -26 56 -55
56 -22 0 -63 -31 -63 -48 0 -5 -22 -4 -49 2 -34 6 -64 6 -95 -1 -44 -10 -45
-9 -57 19 -9 22 -9 35 0 54 14 32 14 34 -4 34 -21 0 -19 11 8 51 17 25 31 35
55 37 26 3 32 7 32 28 0 17 -8 27 -26 34 -31 12 -23 13 -61 -10z m75 -20 c4
-12 2 -13 -9 -2 -15 14 -29 16 -29 3 0 -5 -13 -23 -29 -39 -16 -16 -35 -49
-42 -73 -11 -37 -13 -40 -17 -19 -6 34 16 101 41 128 24 26 77 27 85 2z
m-1885 -160 c3 -11 2 -20 -3 -20 -4 0 -10 11 -12 25 -6 29 7 25 15 -5z m1790
-4 c-3 -18 0 -43 6 -55 7 -11 9 -21 7 -21 -14 0 -36 62 -30 85 9 37 24 30 17
-9z m-1801 -58 c-8 -8 -9 -4 -5 13 4 13 8 18 11 10 2 -7 -1 -18 -6 -23z m2116
0 c2 -11 -5 -18 -20 -20 -30 -4 -26 -33 12 -73 l29 -30 -74 -2 c-102 -2 -160
-29 -183 -83 -22 -51 -42 -52 -42 -2 0 65 65 112 158 112 46 1 46 1 22 15 -41
23 -121 29 -161 12 -107 -45 -139 -177 -63 -266 27 -33 19 -47 -19 -30 -28 12
-56 57 -59 91 0 12 -4 1 -7 -26 -3 -27 -12 -51 -19 -54 -9 -3 -10 3 -2 23 15
40 11 54 -7 20 -23 -44 -82 -104 -125 -126 -39 -20 -94 -25 -117 -10 -18 12
-6 61 15 61 8 0 12 -5 9 -10 -9 -14 20 -23 50 -16 14 4 43 23 65 42 22 20 43
33 48 30 5 -3 14 5 21 17 12 24 24 73 15 64 -3 -3 -6 -9 -6 -14 1 -18 -33 -43
-57 -42 l-26 0 24 17 c13 9 52 60 87 113 68 106 109 143 181 165 52 16 99 12
146 -12 22 -12 28 -12 26 -2 -2 7 1 23 5 36 6 19 14 23 39 20 20 -2 33 -9 35
-20z m-2171 -98 c60 -27 85 -70 80 -139 -4 -50 -8 -58 -53 -101 -62 -59 -120
-74 -163 -43 -31 24 -40 52 -15 49 10 0 23 10 30 24 7 13 23 32 35 41 19 14
21 23 16 60 l-6 44 25 -30 c17 -21 24 -39 21 -58 -5 -38 20 -48 45 -18 22 28
23 72 3 111 -16 30 -37 46 -90 67 l-30 11 30 1 c17 0 49 -8 72 -19z m1993 15
c0 -3 -15 -11 -33 -19 -18 -7 -46 -28 -61 -47 -24 -28 -27 -39 -23 -73 4 -25
14 -48 27 -58 28 -23 41 -15 34 21 -5 23 1 35 26 62 21 23 28 27 21 12 -17
-35 -13 -60 14 -81 14 -11 25 -27 25 -35 0 -20 26 -40 41 -32 23 15 3 -28 -23
-48 -54 -40 -162 4 -204 84 -27 53 -11 143 32 180 30 26 124 52 124 34z m488
-17 c16 -16 15 -53 -3 -88 -18 -35 -71 -54 -126 -45 -25 4 -52 2 -70 -5 -28
-12 -32 -11 -58 21 -29 34 -29 34 -118 34 -75 1 -90 -2 -90 -15 0 -8 -4 -26
-10 -40 -10 -25 -10 -25 -17 -3 -8 25 2 49 33 77 14 13 41 20 91 24 61 4 78 1
130 -22 33 -15 82 -29 108 -33 42 -5 53 -2 71 16 24 24 28 59 6 67 -8 4 -15
10 -15 15 0 13 54 11 68 -3z m-2304 -102 c20 -36 51 -76 69 -90 24 -20 28 -26
14 -26 -19 0 -44 21 -62 50 -22 37 -65 120 -65 125 0 15 12 -1 44 -59z m-339
0 c32 -14 63 -52 51 -63 -3 -3 -12 2 -21 11 -36 35 -106 2 -121 -57 l-6 -26
-29 34 c-33 38 -36 56 -11 78 40 36 86 44 137 23z m182 -18 c-3 -7 -5 -2 -5
12 0 14 2 19 5 13 2 -7 2 -19 0 -25z m2181 6 c30 -20 28 -46 -8 -96 -28 -39
-30 -40 -30 -15 0 42 -41 81 -84 81 -22 0 -41 -6 -46 -14 -13 -21 -19 -9 -9
18 18 49 119 64 177 26z m-2541 -63 c17 -11 47 -44 66 -74 35 -53 83 -97 108
-97 9 0 10 -3 3 -10 -7 -7 -19 -7 -35 -1 -13 5 -20 10 -15 10 5 1 -9 13 -30
27 -44 29 -93 83 -94 102 0 6 -5 12 -11 12 -5 0 -8 -3 -6 -7 3 -5 -10 -8 -28
-8 -18 0 -31 3 -28 8 2 4 2 7 -2 7 -7 0 -27 -49 -30 -78 -3 -23 -3 -23 22 -7
27 18 39 14 30 -10 -10 -24 -53 -18 -76 11 -24 31 -26 43 -9 80 12 26 56 53
88 54 8 0 29 -9 47 -19z m202 5 c6 -7 9 -21 5 -30 -7 -18 -24 -22 -24 -6 0 18
-18 11 -25 -10 -8 -25 19 -77 45 -85 17 -5 19 -10 9 -21 -18 -22 -38 -17 -75
20 -41 41 -47 93 -14 126 23 23 62 26 79 6z m2261 -6 c26 -26 26 -75 1 -117
-24 -39 -54 -49 -83 -29 -12 9 -18 16 -12 16 20 0 64 52 64 76 0 27 -19 42
-30 24 -9 -14 -30 -5 -30 14 0 37 58 48 90 16z m209 9 c39 -14 65 -59 56 -99
-10 -45 -54 -70 -80 -44 -21 21 -19 34 6 34 13 0 18 -4 13 -12 -6 -10 -4 -10
8 0 13 11 15 19 6 43 -18 51 -79 65 -95 22 -11 -31 -44 -73 -53 -68 -4 3 -10
-2 -14 -10 -4 -11 1 -13 22 -9 43 9 61 -19 55 -84 -6 -61 -33 -86 -61 -59 -16
16 -9 53 8 42 6 -4 8 -10 5 -15 -3 -5 0 -12 6 -16 8 -4 9 -3 5 4 -4 7 -2 12 3
12 17 0 13 27 -6 45 -16 17 -40 17 -113 0 -15 -3 -10 2 15 15 45 22 105 26
123 8 9 -9 12 -9 12 0 0 7 -5 12 -11 12 -5 0 -8 3 -6 8 3 4 -15 6 -39 5 -29
-1 -42 2 -38 9 4 6 -2 6 -15 -1 -11 -7 -21 -16 -21 -21 0 -6 -12 -10 -26 -10
-27 0 -27 0 7 23 19 12 56 52 83 87 40 55 80 88 107 90 3 0 20 -5 38 -11z
m-29 -43 c0 -2 -11 -6 -25 -8 -13 -3 -22 -1 -19 3 5 9 44 13 44 5z m-2725 -66
c3 -5 1 -10 -4 -10 -6 0 -11 5 -11 10 0 6 2 10 4 10 3 0 8 -4 11 -10z m163
-46 c20 -15 28 -23 17 -19 -25 9 -94 12 -89 4 2 -4 -3 -12 -11 -19 -11 -9 -15
-9 -15 -1 0 12 44 61 55 61 3 0 23 -12 43 -26z m403 7 c30 -10 96 -42 146 -70
128 -72 326 -166 403 -191 157 -50 349 -52 500 -5 84 27 251 105 445 208 101
53 176 77 244 77 60 0 138 -28 160 -57 36 -44 23 -53 -18 -12 -21 22 -45 39
-52 39 -8 -1 -3 -7 11 -15 14 -7 26 -18 26 -24 1 -6 3 -13 4 -16 1 -3 3 -11 4
-17 0 -7 7 -13 14 -13 19 0 31 -26 23 -49 -5 -12 -6 -28 -3 -36 2 -9 -2 -6
-11 5 -8 11 -19 17 -23 12 -4 -4 3 -19 17 -33 20 -21 21 -27 9 -34 -8 -5 -22
-10 -30 -10 -13 0 -13 -2 0 -9 8 -6 18 -7 24 -4 5 4 6 1 0 -8 -16 -26 -12 -37
17 -49 56 -24 51 -95 -10 -135 -41 -28 -126 -46 -157 -34 -19 8 -5 10 61 12
16 0 17 1 2 4 -9 3 -15 8 -12 13 3 5 13 6 22 3 11 -4 14 -3 9 5 -4 7 -2 10 7
6 8 -3 14 2 14 11 0 9 -9 15 -24 15 -15 0 -22 4 -17 11 3 6 15 9 25 6 10 -3
22 0 26 5 3 6 1 8 -5 4 -6 -3 -13 -3 -16 2 -2 4 6 8 19 8 13 0 21 -4 18 -10
-4 -5 1 -7 9 -3 26 9 31 -6 7 -19 -22 -11 -36 -44 -19 -44 15 0 21 18 8 22 -7
3 -5 7 6 11 10 4 15 3 11 -3 -13 -20 14 -9 29 12 23 33 20 54 -14 78 -38 27
-116 30 -187 6 -27 -9 -112 -51 -189 -94 -178 -99 -258 -135 -369 -167 -195
-56 -365 -69 -541 -40 -174 28 -312 81 -537 206 -158 89 -214 109 -297 109
-61 0 -110 -26 -110 -58 0 -23 49 -72 66 -65 15 5 9 23 -7 23 -6 0 -7 -6 -3
-12 4 -7 3 -9 -1 -5 -19 17 -13 34 11 31 13 -1 24 1 24 6 0 12 28 6 43 -9 10
-11 7 -12 -15 -7 -18 4 -28 2 -28 -4 0 -6 5 -8 12 -4 7 5 9 2 5 -9 -4 -11 1
-18 14 -22 10 -4 17 -11 14 -16 -4 -5 13 -9 36 -9 23 0 40 -3 36 -6 -12 -12
-92 -5 -131 11 -54 23 -86 61 -86 102 0 30 5 36 43 53 23 11 34 20 24 20 -10
0 -27 -5 -38 -10 -10 -6 -19 -8 -19 -5 0 3 15 13 33 21 31 14 31 15 4 11 -22
-3 -25 -2 -16 9 6 8 8 14 3 14 -5 0 0 7 10 15 11 8 16 15 12 15 -5 0 -3 7 4
15 10 12 10 15 -1 15 -12 0 -12 2 -1 9 11 6 10 10 -3 15 -13 5 -15 9 -6 20 9
10 8 16 -4 26 -38 32 0 99 70 124 57 21 152 19 216 -3z m-356 -51 c45 -21 38
-25 -18 -9 -21 6 -51 7 -67 4 -26 -6 -29 -11 -28 -41 1 -28 5 -34 22 -33 12 0
15 3 9 6 -7 2 -13 14 -13 26 0 20 1 20 17 4 13 -13 15 -21 7 -34 -6 -9 -15
-18 -21 -20 -18 -6 -43 27 -43 57 0 59 57 76 135 40z m727 -4 c61 -27 97 -61
81 -77 -7 -7 -21 -1 -44 18 -18 15 -30 23 -26 16 13 -21 -12 -24 -32 -4 -11
11 -39 25 -63 31 l-42 12 24 14 c34 18 42 18 102 -10z m971 10 c25 -19 21 -29
-10 -23 -22 4 -34 -1 -56 -26 -23 -26 -30 -29 -37 -17 -7 12 -12 12 -28 -4
-15 -13 -21 -14 -25 -4 -3 8 -6 5 -6 -6 -1 -15 -4 -17 -13 -8 -16 16 5 38 71
72 63 33 79 35 104 16z m-1708 -177 c4 -6 4 -13 0 -17 -4 -4 -10 -1 -12 6 -5
14 -33 16 -33 2 0 -5 5 -10 11 -10 6 0 9 -7 5 -15 -3 -8 -2 -14 2 -13 4 0 18
-4 32 -10 14 -6 18 -11 10 -12 -13 0 -13 -1 0 -10 26 -16 -20 -25 -49 -9 -26
15 -39 55 -27 85 6 16 52 19 61 3z m2403 -1 c7 -7 12 -24 12 -40 0 -48 -79
-80 -86 -35 -1 11 4 17 16 17 11 0 22 10 26 23 7 21 7 21 15 2 5 -13 8 -15 8
-5 1 19 -10 36 -29 43 -11 4 -9 6 6 6 11 1 25 -4 32 -11z m-108 -78 c0 -5 -2
-10 -4 -10 -3 0 -8 5 -11 10 -3 6 -1 10 4 10 6 0 11 -4 11 -10z m-2007 -77
c-7 -2 -19 -2 -25 0 -7 3 -2 5 12 5 14 0 19 -2 13 -5z m79 -60 c-9 -8 -12 -12
-6 -9 6 3 19 -3 29 -14 10 -11 15 -20 11 -20 -4 0 -4 -5 0 -11 4 -7 9 -8 17 0
7 7 21 2 46 -18 20 -15 67 -47 106 -70 57 -34 71 -39 75 -26 4 13 12 9 35 -16
17 -17 52 -42 78 -54 35 -16 43 -24 32 -29 -29 -11 -53 -6 -132 25 -56 22 -86
29 -110 24 -21 -4 -30 -10 -27 -19 3 -8 0 -17 -7 -22 -8 -5 -10 -3 -4 6 5 9 4
11 -4 6 -17 -11 -2 -29 20 -23 11 3 17 1 13 -4 -8 -13 -38 -11 -52 3 -7 7 -12
22 -12 33 0 59 92 76 161 31 28 -19 40 -22 45 -13 4 6 4 9 0 5 -4 -3 -23 4
-42 17 -63 43 -217 61 -248 29 -9 -8 -16 -22 -16 -29 0 -8 -4 -17 -10 -20 -6
-4 -10 6 -10 24 0 39 44 64 105 59 26 -2 42 1 42 8 0 17 -99 6 -127 -15 -26
-18 -36 -51 -26 -78 5 -12 9 -13 20 -4 9 7 17 8 20 3 9 -15 -21 -22 -48 -12
-30 11 -40 39 -27 73 7 18 7 27 -1 29 -7 3 -8 10 -3 17 6 10 26 12 75 9 47 -4
67 -2 65 6 -5 27 -18 45 -27 40 -5 -3 -4 -13 4 -22 7 -9 -10 2 -38 26 -51 41
-109 72 -138 72 -8 0 -22 -7 -30 -16 -9 -8 -16 -12 -16 -7 0 33 65 43 114 18
21 -11 32 -13 40 -5 8 8 7 11 -4 8 -10 -2 -14 3 -12 16 3 16 1 18 -10 8 -9 -7
-30 -8 -63 -3 l-50 7 47 5 c25 2 44 0 41 -5 -3 -5 0 -6 8 -4 8 3 13 12 11 19
-2 8 10 1 27 -15 28 -27 29 -30 13 -43z m1731 60 c-7 -2 -21 -2 -30 0 -10 3
-4 5 12 5 17 0 24 -2 18 -5z m-63 -13 c-11 -7 -3 -8 26 -4 24 4 50 2 60 -5 13
-7 15 -10 5 -11 -11 0 -10 -4 4 -13 20 -16 13 -38 -13 -36 -15 1 -15 2 1 6 14
4 16 8 6 19 -6 8 -19 14 -28 14 -30 -1 -95 -37 -143 -79 -64 -57 -67 -51 -5
10 62 61 40 53 -31 -12 l-50 -46 82 4 c66 4 85 1 95 -11 11 -13 11 -16 -3 -16
-18 0 -22 -15 -6 -25 19 -12 10 -54 -15 -71 -29 -19 -64 -12 -46 10 15 18 5
40 -24 56 -32 17 -149 7 -201 -16 -22 -10 -43 -20 -49 -22 -5 -2 35 26 90 63
112 75 210 153 210 166 0 11 25 29 40 29 6 0 3 -5 -5 -10z m-1470 -108 c235
-118 378 -155 605 -155 228 0 409 47 633 164 63 32 116 59 119 59 2 0 -10 -19
-28 -42 -40 -50 -147 -120 -171 -112 -11 3 -34 -8 -60 -29 -67 -54 -84 -59
-207 -67 -64 -4 -136 -15 -160 -24 -56 -21 -97 -21 -105 0 -6 16 -8 16 -24 0
-24 -21 -56 -20 -125 4 -39 14 -82 20 -139 20 -109 0 -151 13 -204 62 -33 30
-49 39 -66 35 -31 -8 -135 58 -178 112 -17 23 -30 41 -28 41 2 0 64 -31 138
-68z m1133 -126 c-10 -13 -21 -22 -25 -20 -4 2 -10 -1 -14 -7 -4 -8 -3 -9 4
-5 7 4 12 2 12 -4 0 -7 15 -3 35 10 43 27 93 41 100 30 3 -5 11 -7 18 -4 19 7
49 -31 45 -57 -4 -27 -29 -44 -52 -36 -14 6 -15 10 -4 27 11 17 10 22 -2 30
-23 15 -50 11 -115 -15 -70 -29 -75 -30 -49 -10 18 14 17 15 -8 4 -15 -7 -25
-16 -22 -20 3 -5 -8 -9 -25 -9 -44 0 -47 17 -6 34 20 9 53 29 73 46 44 36 60
39 35 6z m-657 -91 c27 -14 54 -25 61 -25 21 0 35 -37 23 -59 -5 -11 -10 -23
-10 -28 1 -4 9 7 19 25 l18 34 -3 -69 c-4 -88 -7 -113 -15 -113 -13 0 -18 31
-9 56 10 26 13 71 3 46 -7 -17 -23 -5 -23 18 0 10 -11 32 -25 48 -13 16 -21
32 -17 36 4 4 3 7 -3 6 -20 -4 -36 0 -31 8 3 5 -26 8 -63 8 -70 -1 -107 -17
-97 -43 6 -15 -10 -18 -19 -2 -4 5 1 20 12 32 l18 22 -23 -20 c-16 -13 -21
-26 -17 -42 6 -26 -2 -29 -27 -9 -24 18 -23 51 2 76 31 31 160 29 226 -5z
m509 5 c8 -7 15 -20 15 -29 0 -24 -28 -61 -47 -61 -12 0 -13 3 -4 14 9 11 10
20 1 35 -6 12 -14 22 -18 22 -29 6 -170 4 -167 -2 6 -8 -67 -65 -78 -61 -5 1
-6 -2 -3 -7 8 -12 -4 -41 -16 -41 -6 0 -7 11 -3 27 4 16 3 25 -1 20 -13 -13
-15 -81 -3 -103 12 -24 -2 -66 -15 -45 -4 6 -2 11 4 11 7 0 8 6 0 19 -25 47
-1 149 39 171 12 6 21 8 21 5 0 -4 12 2 28 13 15 10 34 22 42 25 26 11 189 0
205 -13z m-360 -27 c11 -15 15 -16 31 -3 17 13 18 13 7 -1 -7 -8 -17 -26 -23
-40 -10 -22 -10 -22 -6 -1 6 30 -2 28 -14 -4 -14 -36 -26 -22 -22 25 5 45 9
49 27 24z m-47 -18 c-3 -3 -9 2 -12 12 -6 14 -5 15 5 6 7 -7 10 -15 7 -18z
m366 -1 c7 -19 2 -18 -19 6 -16 17 -16 20 -3 15 9 -4 19 -13 22 -21z m-434
-44 c11 -11 20 -29 20 -39 0 -11 5 -23 10 -26 6 -3 10 -15 10 -26 0 -14 -6
-18 -22 -15 -13 1 -22 7 -20 12 2 5 10 8 19 6 13 -3 13 2 -4 30 -13 22 -28 34
-46 36 -30 4 -38 -14 -9 -21 16 -4 16 -4 0 -12 -41 -17 -72 23 -43 55 23 26
60 25 85 0z m292 -5 c8 -19 8 -28 -2 -40 -14 -17 -46 -20 -55 -5 -3 6 1 10 10
10 9 0 13 5 10 10 -11 17 -43 11 -59 -12 l-16 -22 0 21 c0 27 44 63 77 63 15
0 27 -8 35 -25z m-122 -70 c0 -8 3 -14 8 -14 18 3 32 -2 32 -11 0 -18 -39 -11
-50 9 -13 25 -13 31 0 31 6 0 10 -7 10 -15z m-51 -40 c11 6 6 -39 -7 -61 -9
-15 -12 -14 -26 14 -13 26 -14 37 -5 54 10 19 12 20 21 4 5 -9 13 -14 17 -11z"/>
<path d="M2603 1370 c-35 -14 -27 -20 10 -8 17 6 34 13 36 14 8 7 -24 3 -46
-6z"/>
<path d="M2533 1318 c-35 -37 -93 -126 -93 -142 0 -6 12 9 26 34 14 25 43 66
65 93 46 54 47 62 2 15z"/>
<path d="M2662 1273 c-15 -16 -19 -21 -7 -12 11 9 29 21 40 27 11 6 14 12 8
12 -7 0 -25 -12 -41 -27z"/>
<path d="M2520 1103 c0 -6 8 -17 18 -24 16 -13 16 -13 2 6 -8 11 -16 22 -17
24 -2 2 -3 0 -3 -6z"/>
<path d="M2257 978 c6 -11 41 -10 47 1 3 4 -8 8 -23 7 -16 -1 -27 -4 -24 -8z"/>
<path d="M3170 1305 c7 -8 10 -29 8 -46 -5 -29 -4 -30 9 -14 7 11 13 23 13 28
0 16 -21 47 -32 47 -7 0 -6 -5 2 -15z"/>
<path d="M2784 1254 c-10 -8 -12 -12 -4 -7 8 4 40 11 70 14 l55 6 -51 2 c-33
0 -57 -4 -70 -15z"/>
<path d="M2950 1240 c8 -5 20 -10 25 -10 6 0 3 5 -5 10 -8 5 -19 10 -25 10 -5
0 -3 -5 5 -10z"/>
<path d="M2998 1224 c8 -4 5 -11 -10 -25 l-23 -20 27 16 c17 11 35 14 49 10
29 -10 95 -8 113 2 9 5 -13 8 -52 8 -37 0 -78 3 -92 7 -14 4 -19 5 -12 2z"/>
<path d="M328 1113 c7 -3 16 -2 19 1 4 3 -2 6 -13 5 -11 0 -14 -3 -6 -6z"/>
<path d="M510 1121 c-12 -24 -13 -51 -1 -70 6 -9 10 3 12 38 2 28 3 51 2 51
-1 0 -7 -9 -13 -19z"/>
<path d="M530 1026 c0 -2 8 -10 18 -17 15 -13 16 -12 3 4 -13 16 -21 21 -21
13z"/>
<path d="M2826 1065 c-9 -26 -7 -32 5 -12 6 10 9 21 6 23 -2 3 -7 -2 -11 -11z"/>
<path d="M2791 1010 c-13 -11 -19 -20 -14 -20 6 0 18 9 28 20 23 25 17 25 -14
0z"/>
<path d="M3087 1061 c-4 -17 -3 -21 5 -13 5 5 8 16 6 23 -3 8 -7 3 -11 -10z"/>
<path d="M408 993 c7 -3 16 -2 19 1 4 3 -2 6 -13 5 -11 0 -14 -3 -6 -6z"/>
<path d="M2545 1001 c-19 -4 -1 -7 50 -7 51 0 69 3 50 7 -16 4 -39 7 -50 7
-11 0 -33 -3 -50 -7z"/>
<path d="M760 990 c82 -7 91 -11 284 -109 109 -56 200 -100 202 -99 8 8 -359
193 -411 207 -22 6 -67 10 -100 10 -56 -2 -54 -2 25 -9z"/>
<path d="M612 970 c-18 -11 -30 -25 -27 -30 3 -6 8 -10 11 -10 3 0 2 5 -1 10
-4 6 13 19 37 30 24 11 36 20 28 20 -8 0 -30 -9 -48 -20z"/>
<path d="M2234 865 c-279 -140 -373 -173 -524 -182 -130 -8 -245 16 -435 92
-13 5 -17 5 -10 -2 11 -12 123 -54 205 -78 74 -21 230 -30 313 -17 119 19 207
53 437 170 124 63 241 120 260 127 19 8 28 14 19 14 -9 1 -128 -55 -265 -124z"/>
<path d="M2603 928 c3 -13 2 -32 -2 -43 -8 -19 -8 -19 -20 4 -7 12 -10 28 -8
36 4 10 -1 11 -28 2 l-34 -10 35 -39 c39 -44 56 -80 48 -103 -5 -12 -1 -13 24
-4 29 10 30 11 15 40 -14 28 -13 66 3 122 4 12 0 17 -16 17 -18 0 -21 -4 -17
-22z"/>
<path d="M689 911 c-33 -34 -39 -83 -13 -119 22 -32 88 -31 109 2 65 98 -16
197 -96 117z m75 -43 c0 -50 -16 -78 -44 -78 -25 0 -32 27 -19 69 15 46 28 63
48 59 12 -3 16 -15 15 -50z"/>
<path d="M844 879 c-1 -15 -13 -52 -27 -81 -19 -39 -23 -54 -14 -60 16 -10 40
-10 34 0 -7 12 11 52 24 52 8 0 10 -13 6 -39 -4 -34 -2 -40 20 -50 26 -12 26
-12 20 30 -5 36 -2 44 20 63 35 31 24 60 -35 90 l-47 24 -1 -29z m66 -44 c0
-17 -27 -38 -39 -31 -6 4 -6 17 1 37 8 24 13 27 24 18 8 -6 14 -17 14 -24z"/>
<path d="M2433 885 c-51 -23 -63 -37 -44 -49 5 -3 11 1 15 9 3 8 9 15 14 15
12 0 52 -92 52 -119 0 -12 3 -21 8 -21 13 1 57 29 46 30 -10 0 -24 29 -62 119
-4 11 1 12 20 8 23 -6 25 -4 21 13 -7 25 -7 25 -70 -5z"/>
<path d="M2735 890 c-11 -5 -15 -9 -10 -10 6 -1 18 -3 27 -5 11 -2 15 2 11 11
-3 8 -6 14 -7 13 0 0 -10 -4 -21 -9z"/>
<path d="M588 883 c6 -2 18 -2 25 0 6 3 1 5 -13 5 -14 0 -19 -2 -12 -5z"/>
<path d="M2711 866 c2 -2 15 -9 29 -16 23 -12 24 -12 11 3 -7 10 -20 17 -29
17 -8 0 -13 -2 -11 -4z"/>
<path d="M980 825 c0 -11 -39 -103 -57 -136 -2 -3 8 -11 22 -17 23 -11 25 -10
25 12 0 28 26 94 46 117 12 14 11 17 -11 27 -20 9 -25 9 -25 -3z"/>
<path d="M2329 830 c-15 -9 -13 -17 18 -75 19 -36 31 -69 28 -75 -8 -14 5 -12
34 4 16 9 20 16 12 20 -15 9 -61 101 -61 121 0 17 -8 18 -31 5z"/>
<path d="M2725 800 c13 -6 15 -9 5 -9 -13 -1 -13 -3 0 -10 8 -6 18 -7 23 -4
12 7 -13 33 -32 32 -12 0 -11 -2 4 -9z"/>
<path d="M1033 775 c-27 -19 -47 -78 -39 -111 5 -17 20 -31 48 -44 l41 -18 21
41 c21 42 21 42 1 52 -17 9 -21 7 -30 -20 -14 -42 -39 -39 -43 6 -2 24 4 43
18 62 26 33 45 34 61 6 9 -17 13 -19 20 -8 13 21 11 25 -16 37 -35 16 -56 15
-82 -3z"/>
<path d="M2216 777 c-16 -11 -16 -15 -3 -25 20 -17 62 -121 53 -130 -8 -7 -67
52 -98 96 -12 18 -22 22 -38 17 -15 -5 -18 -10 -11 -19 6 -6 11 -47 13 -89 2
-42 6 -77 9 -77 3 0 14 7 25 15 11 8 14 15 7 15 -20 0 -15 28 6 39 21 12 31 5
31 -21 0 -16 9 -13 75 19 50 25 75 43 75 55 0 25 -17 31 -23 8 -3 -11 -12 -20
-21 -20 -19 0 -70 96 -62 116 7 18 -15 18 -38 1z m-41 -137 c-13 -20 -25 -9
-25 22 0 32 0 32 16 10 8 -12 12 -27 9 -32z"/>
<path d="M587 749 c7 -7 15 -10 18 -7 3 3 -2 9 -12 12 -14 6 -15 5 -6 -5z"/>
<path d="M1164 733 c3 -10 -7 -46 -24 -82 -24 -50 -28 -66 -18 -73 21 -13 24
-10 36 31 7 21 23 54 37 74 l24 37 -30 16 c-29 15 -30 14 -25 -3z"/>
<path d="M2708 733 c6 -2 18 -2 25 0 6 3 1 5 -13 5 -14 0 -19 -2 -12 -5z"/>
<path d="M633 713 c9 -2 23 -2 30 0 6 3 -1 5 -18 5 -16 0 -22 -2 -12 -5z"/>
<path d="M2668 713 c12 -2 32 -2 45 0 12 2 2 4 -23 4 -25 0 -35 -2 -22 -4z"/>
<path d="M705 703 c58 -12 148 -51 243 -105 120 -69 251 -132 259 -125 2 3
-16 13 -42 22 -25 10 -109 54 -188 98 -142 80 -232 118 -271 116 -20 -1 -20
-2 -1 -6z"/>
<path d="M1216 657 c-9 -30 -24 -63 -32 -75 -13 -19 -13 -22 6 -32 17 -9 20
-8 20 8 0 29 21 83 30 77 5 -3 11 -24 15 -48 13 -74 20 -73 52 6 26 63 29 77
16 81 -21 8 -25 7 -19 -3 4 -5 1 -22 -5 -38 l-12 -28 -11 40 c-23 81 -37 84
-60 12z"/>
<path d="M2542 684 c-35 -14 -115 -55 -178 -90 -63 -35 -154 -81 -202 -100
-88 -37 -118 -53 -72 -39 54 16 171 71 295 139 71 39 159 81 195 93 36 12 56
22 45 22 -11 0 -48 -11 -83 -25z"/>
<path d="M2010 687 c-73 -37 -49 -167 31 -167 43 0 81 21 73 39 -4 9 -9 30
-11 47 -5 30 -6 31 -34 21 -24 -10 -26 -13 -15 -27 23 -26 27 -50 10 -57 -27
-10 -57 31 -58 79 -1 41 1 43 27 43 19 -1 27 4 27 17 0 21 -15 23 -50 5z"/>
<path d="M1905 649 c-11 -4 -32 -8 -47 -8 -29 -1 -35 -10 -19 -26 11 -13 32
-125 25 -136 -7 -12 7 -11 61 3 32 9 45 17 45 30 0 10 -4 18 -10 18 -5 0 -10
-4 -10 -9 0 -10 -38 -26 -45 -19 -2 1 -6 15 -10 31 -6 23 -4 27 14 27 12 0 21
6 21 15 0 9 -8 14 -22 12 -17 -1 -24 4 -26 22 -3 22 -1 23 27 18 31 -7 37 -2
23 19 -4 7 -15 8 -27 3z"/>
<path d="M1373 571 c-27 -48 -30 -60 -18 -65 10 -4 15 1 15 15 0 14 5 19 18
17 10 -2 17 -12 16 -25 0 -15 7 -24 25 -28 14 -3 34 -8 43 -11 12 -4 15 0 11
15 -3 12 -2 33 2 48 7 28 7 27 33 -22 l26 -50 7 35 c19 96 19 100 3 100 -8 0
-12 -5 -9 -10 3 -6 3 -20 -1 -32 -6 -21 -8 -20 -23 12 -23 49 -45 50 -48 3 -5
-98 -33 -115 -33 -19 0 49 -4 65 -16 70 -9 3 -16 6 -17 6 -1 0 -17 -27 -34
-59z m37 4 c0 -15 -6 -25 -15 -25 -12 0 -13 4 -3 25 6 14 13 25 15 25 1 0 3
-11 3 -25z"/>
<path d="M1736 594 c4 -15 7 -54 8 -86 l1 -60 43 6 c56 7 61 11 55 37 -5 18
-7 19 -15 5 -5 -9 -17 -16 -27 -16 -15 0 -20 11 -25 60 -4 33 -4 65 -1 70 3 6
-5 10 -20 10 -22 0 -25 -3 -19 -26z"/>
<path d="M1584 525 l-9 -65 31 0 c44 0 77 29 77 68 0 41 -19 62 -57 62 -32 0
-32 -1 -42 -65z m70 19 c8 -29 -9 -64 -29 -64 -11 0 -15 12 -15 43 0 24 3 46
6 50 11 11 32 -5 38 -29z"/>
<path d="M620 550 c8 -5 20 -10 25 -10 6 0 3 5 -5 10 -8 5 -19 10 -25 10 -5 0
-3 -5 5 -10z"/>
<path d="M1230 460 c8 -5 20 -10 25 -10 6 0 3 5 -5 10 -8 5 -19 10 -25 10 -5
0 -3 -5 5 -10z"/>
<path d="M1285 440 c27 -12 43 -12 25 0 -8 5 -22 9 -30 9 -10 0 -8 -3 5 -9z"/>
<path d="M2000 435 c-19 -7 -28 -13 -20 -13 8 0 31 6 50 13 19 7 28 13 20 13
-8 0 -31 -6 -50 -13z"/>
<path d="M1338 423 c7 -3 16 -2 19 1 4 3 -2 6 -13 5 -11 0 -14 -3 -6 -6z"/>
<path d="M1390 410 c14 -4 34 -8 45 -8 16 0 15 2 -5 8 -14 4 -34 8 -45 8 -16
0 -15 -2 5 -8z"/>
<path d="M1900 410 l-25 -8 25 0 c14 0 34 3 45 8 l20 9 -20 -1 c-11 0 -31 -4
-45 -8z"/>
<path d="M1473 393 c9 -2 23 -2 30 0 6 3 -1 5 -18 5 -16 0 -22 -2 -12 -5z"/>
<path d="M1745 389 c-101 -13 -104 -19 -5 -12 89 6 166 22 105 21 -16 0 -61
-5 -100 -9z"/>
<path d="M1538 383 c12 -2 32 -2 45 0 12 2 2 4 -23 4 -25 0 -35 -2 -22 -4z"/>
<path d="M860 546 c0 -2 8 -10 18 -17 15 -13 16 -12 3 4 -13 16 -21 21 -21 13z"/>
<path d="M950 466 c0 -2 7 -7 16 -10 8 -3 12 -2 9 4 -6 10 -25 14 -25 6z"/>
<path d="M2508 592 c11 -7 10 -11 -4 -16 -9 -3 -15 -9 -12 -11 3 -3 20 1 39 9
19 9 26 15 17 16 -9 0 -25 3 -35 6 -13 4 -14 3 -5 -4z"/>
<path d="M2337 443 c-10 -9 -9 -23 1 -23 5 0 9 7 9 15 0 17 -1 18 -10 8z"/>
<path d="M2402 431 c60 -9 91 -36 85 -74 -3 -24 -2 -26 11 -14 11 12 12 19 2
38 -7 13 -19 28 -27 32 -7 5 -11 11 -9 15 2 4 -21 8 -52 9 l-57 1 47 -7z"/>
<path d="M2335 350 c10 -11 20 -18 23 -15 7 6 -18 35 -31 35 -5 0 -2 -9 8 -20z"/>
<path d="M2341 304 c0 -11 3 -14 6 -6 3 7 2 16 -1 19 -3 4 -6 -2 -5 -13z"/>
<path d="M1310 269 c0 -5 5 -7 10 -4 6 3 10 8 10 11 0 2 -4 4 -10 4 -5 0 -10
-5 -10 -11z"/>
<path d="M1597 237 c-3 -7 -2 -19 3 -26 5 -10 8 -9 13 2 3 7 2 19 -3 26 -5 10
-8 9 -13 -2z"/>
<path d="M1898 293 c12 -2 32 -2 45 0 12 2 2 4 -23 4 -25 0 -35 -2 -22 -4z"/>
<path d="M2010 280 c11 -11 20 -30 21 -42 1 -22 1 -22 8 2 5 19 2 29 -15 43
-30 23 -39 22 -14 -3z"/>
<path d="M1744 238 l-19 -23 23 19 c21 18 27 26 19 26 -2 0 -12 -10 -23 -22z"/>
<path d="M1530 207 c0 -3 12 -12 26 -22 15 -9 23 -12 20 -6 -7 11 -46 35 -46
28z"/>
<path d="M1491 164 c0 -11 3 -14 6 -6 3 7 2 16 -1 19 -3 4 -6 -2 -5 -13z"/>
<path d="M1832 184 c10 -10 20 -16 22 -13 3 3 -5 11 -17 18 -21 13 -21 12 -5
-5z"/>
<path d="M580 1380 c-11 -8 -7 -9 15 -4 37 8 45 14 19 14 -10 0 -26 -5 -34
-10z"/>
<path d="M673 1383 c9 -2 23 -2 30 0 6 3 -1 5 -18 5 -16 0 -22 -2 -12 -5z"/>
<path d="M635 1288 c11 -6 28 -20 37 -32 10 -11 18 -16 18 -9 0 14 -48 53 -64
53 -6 0 -2 -6 9 -12z"/>
<path d="M150 1272 c0 -13 11 -34 25 -47 20 -21 33 -25 77 -24 l53 2 -50 6
c-61 8 -73 15 -91 55 -12 27 -13 28 -14 8z"/>
<path d="M438 1263 c7 -3 16 -2 19 1 4 3 -2 6 -13 5 -11 0 -14 -3 -6 -6z"/>
<path d="M357 1235 c-41 -19 -46 -31 -13 -33 5 0 13 -6 17 -14 7 -10 9 -8 9 6
0 12 -5 16 -15 12 -33 -12 -12 11 28 31 57 29 35 27 -26 -2z"/>
<path d="M817 1131 c-4 -17 -3 -21 5 -13 5 5 8 16 6 23 -3 8 -7 3 -11 -10z"/>
</g>
</svg>
